<svg width="114" height="114" viewBox="0 0 114 114" fill="none" xmlns="http://www.w3.org/2000/svg">
<g filter="url(#filter0_b_279_17)">
<rect x="0.53125" y="0.0800781" width="112.938" height="112.938" rx="15.4045" fill="#071619" fill-opacity="0.2"/>
<rect x="1.01264" y="0.561467" width="111.975" height="111.975" rx="14.9231" stroke="url(#paint0_radial_279_17)" stroke-width="0.962779"/>
</g>
<g filter="url(#filter1_b_279_17)">
<mask id="path-3-inside-1_279_17" fill="white">
<path d="M93.5041 26.8171C87.298 19.1973 78.8631 13.7106 69.3817 11.1261C59.9003 8.54156 49.8478 8.98879 40.6334 12.4051C31.419 15.8214 23.5046 22.0354 17.9997 30.1762C12.4948 38.317 9.67534 47.9763 9.93656 57.8002L38.1746 57.0493C38.0701 53.1198 39.1979 49.2561 41.3999 45.9997C43.6018 42.7434 46.7676 40.2578 50.4533 38.8913C54.1391 37.5248 58.1601 37.3459 61.9526 38.3797C65.7452 39.4135 69.1192 41.6082 71.6016 44.6561L93.5041 26.8171Z"/>
</mask>
<path d="M93.5041 26.8171C87.298 19.1973 78.8631 13.7106 69.3817 11.1261C59.9003 8.54156 49.8478 8.98879 40.6334 12.4051C31.419 15.8214 23.5046 22.0354 17.9997 30.1762C12.4948 38.317 9.67534 47.9763 9.93656 57.8002L38.1746 57.0493C38.0701 53.1198 39.1979 49.2561 41.3999 45.9997C43.6018 42.7434 46.7676 40.2578 50.4533 38.8913C54.1391 37.5248 58.1601 37.3459 61.9526 38.3797C65.7452 39.4135 69.1192 41.6082 71.6016 44.6561L93.5041 26.8171Z" fill="#071619" fill-opacity="0.2"/>
<path d="M93.5041 26.8171C87.298 19.1973 78.8631 13.7106 69.3817 11.1261C59.9003 8.54156 49.8478 8.98879 40.6334 12.4051C31.419 15.8214 23.5046 22.0354 17.9997 30.1762C12.4948 38.317 9.67534 47.9763 9.93656 57.8002L38.1746 57.0493C38.0701 53.1198 39.1979 49.2561 41.3999 45.9997C43.6018 42.7434 46.7676 40.2578 50.4533 38.8913C54.1391 37.5248 58.1601 37.3459 61.9526 38.3797C65.7452 39.4135 69.1192 41.6082 71.6016 44.6561L93.5041 26.8171Z" stroke="url(#paint1_radial_279_17)" stroke-width="1.92556" mask="url(#path-3-inside-1_279_17)"/>
</g>
<g filter="url(#filter2_b_279_17)">
<mask id="path-4-inside-2_279_17" fill="white">
<path d="M104.08 56.5488C104.08 46.7214 101.005 37.1405 95.2854 29.1489C89.566 21.1573 81.4893 15.1558 72.1873 11.9856C62.8853 8.81548 52.8245 8.63561 43.4152 11.4712C34.0059 14.3069 25.7197 20.0158 19.7184 27.7979L42.0873 45.0484C44.4879 41.9356 47.8023 39.652 51.566 38.5178C55.3298 37.3835 59.3541 37.4555 63.0749 38.7235C66.7957 39.9916 70.0264 42.3922 72.3141 45.5888C74.6019 48.7854 75.8319 52.6178 75.8319 56.5488H104.08Z"/>
</mask>
<path d="M104.08 56.5488C104.08 46.7214 101.005 37.1405 95.2854 29.1489C89.566 21.1573 81.4893 15.1558 72.1873 11.9856C62.8853 8.81548 52.8245 8.63561 43.4152 11.4712C34.0059 14.3069 25.7197 20.0158 19.7184 27.7979L42.0873 45.0484C44.4879 41.9356 47.8023 39.652 51.566 38.5178C55.3298 37.3835 59.3541 37.4555 63.0749 38.7235C66.7957 39.9916 70.0264 42.3922 72.3141 45.5888C74.6019 48.7854 75.8319 52.6178 75.8319 56.5488H104.08Z" fill="#071619" fill-opacity="0.2"/>
<path d="M104.08 56.5488C104.08 46.7214 101.005 37.1405 95.2854 29.1489C89.566 21.1573 81.4893 15.1558 72.1873 11.9856C62.8853 8.81548 52.8245 8.63561 43.4152 11.4712C34.0059 14.3069 25.7197 20.0158 19.7184 27.7979L42.0873 45.0484C44.4879 41.9356 47.8023 39.652 51.566 38.5178C55.3298 37.3835 59.3541 37.4555 63.0749 38.7235C66.7957 39.9916 70.0264 42.3922 72.3141 45.5888C74.6019 48.7854 75.8319 52.6178 75.8319 56.5488H104.08Z" stroke="url(#paint2_radial_279_17)" stroke-width="1.92556" mask="url(#path-4-inside-2_279_17)"/>
</g>
<g filter="url(#filter3_b_279_17)">
<mask id="path-5-inside-3_279_17" fill="white">
<path d="M104.08 56.5488C104.08 50.3661 102.862 44.244 100.496 38.532C98.1302 32.82 94.6623 27.63 90.2905 23.2582C85.9188 18.8864 80.7287 15.4185 75.0167 13.0525C69.3047 10.6865 63.1826 9.46875 56.9999 9.46875L56.9999 37.7168C59.473 37.7168 61.9218 38.2039 64.2066 39.1503C66.4914 40.0967 68.5675 41.4838 70.3162 43.2325C72.0649 44.9812 73.452 47.0573 74.3984 49.3421C75.3448 51.6269 75.8319 54.0757 75.8319 56.5488H104.08Z"/>
</mask>
<path d="M104.08 56.5488C104.08 50.3661 102.862 44.244 100.496 38.532C98.1302 32.82 94.6623 27.63 90.2905 23.2582C85.9188 18.8864 80.7287 15.4185 75.0167 13.0525C69.3047 10.6865 63.1826 9.46875 56.9999 9.46875L56.9999 37.7168C59.473 37.7168 61.9218 38.2039 64.2066 39.1503C66.4914 40.0967 68.5675 41.4838 70.3162 43.2325C72.0649 44.9812 73.452 47.0573 74.3984 49.3421C75.3448 51.6269 75.8319 54.0757 75.8319 56.5488H104.08Z" fill="#071619" fill-opacity="0.2"/>
<path d="M104.08 56.5488C104.08 50.3661 102.862 44.244 100.496 38.532C98.1302 32.82 94.6623 27.63 90.2905 23.2582C85.9188 18.8864 80.7287 15.4185 75.0167 13.0525C69.3047 10.6865 63.1826 9.46875 56.9999 9.46875L56.9999 37.7168C59.473 37.7168 61.9218 38.2039 64.2066 39.1503C66.4914 40.0967 68.5675 41.4838 70.3162 43.2325C72.0649 44.9812 73.452 47.0573 74.3984 49.3421C75.3448 51.6269 75.8319 54.0757 75.8319 56.5488H104.08Z" stroke="url(#paint3_radial_279_17)" stroke-width="1.92556" mask="url(#path-5-inside-3_279_17)"/>
</g>
<g filter="url(#filter4_b_279_17)">
<mask id="path-6-inside-4_279_17" fill="white">
<path d="M9.91992 56.5488C9.91992 63.1684 11.3159 69.7136 14.0166 75.7572C16.7174 81.8008 20.6623 87.2069 25.5938 91.6227C30.5253 96.0385 36.3326 99.3647 42.6366 101.384C48.9406 103.404 55.5997 104.071 62.1791 103.343C68.7586 102.615 75.1105 100.507 80.8203 97.1581C86.5301 93.8089 91.4694 89.2932 95.3159 83.9059C99.1624 78.5185 101.83 72.3806 103.143 65.8926C104.457 59.4047 104.388 52.7127 102.94 46.2533L75.3761 52.4306C75.9552 55.0143 75.9828 57.6911 75.4573 60.2863C74.9318 62.8815 73.8649 65.3367 72.3263 67.4916C70.7877 69.6466 68.812 71.4528 66.5281 72.7925C64.2442 74.1322 61.7034 74.9752 59.0716 75.2665C56.4398 75.5578 53.7762 75.2908 51.2546 74.483C48.733 73.6752 46.4101 72.3447 44.4375 70.5783C42.4649 68.812 40.8869 66.6496 39.8066 64.2321C38.7263 61.8147 38.1679 59.1966 38.1679 56.5488L9.91992 56.5488Z"/>
</mask>
<path d="M9.91992 56.5488C9.91992 63.1684 11.3159 69.7136 14.0166 75.7572C16.7174 81.8008 20.6623 87.2069 25.5938 91.6227C30.5253 96.0385 36.3326 99.3647 42.6366 101.384C48.9406 103.404 55.5997 104.071 62.1791 103.343C68.7586 102.615 75.1105 100.507 80.8203 97.1581C86.5301 93.8089 91.4694 89.2932 95.3159 83.9059C99.1624 78.5185 101.83 72.3806 103.143 65.8926C104.457 59.4047 104.388 52.7127 102.94 46.2533L75.3761 52.4306C75.9552 55.0143 75.9828 57.6911 75.4573 60.2863C74.9318 62.8815 73.8649 65.3367 72.3263 67.4916C70.7877 69.6466 68.812 71.4528 66.5281 72.7925C64.2442 74.1322 61.7034 74.9752 59.0716 75.2665C56.4398 75.5578 53.7762 75.2908 51.2546 74.483C48.733 73.6752 46.4101 72.3447 44.4375 70.5783C42.4649 68.812 40.8869 66.6496 39.8066 64.2321C38.7263 61.8147 38.1679 59.1966 38.1679 56.5488L9.91992 56.5488Z" fill="#071619" fill-opacity="0.2"/>
<path d="M9.91992 56.5488C9.91992 63.1684 11.3159 69.7136 14.0166 75.7572C16.7174 81.8008 20.6623 87.2069 25.5938 91.6227C30.5253 96.0385 36.3326 99.3647 42.6366 101.384C48.9406 103.404 55.5997 104.071 62.1791 103.343C68.7586 102.615 75.1105 100.507 80.8203 97.1581C86.5301 93.8089 91.4694 89.2932 95.3159 83.9059C99.1624 78.5185 101.83 72.3806 103.143 65.8926C104.457 59.4047 104.388 52.7127 102.94 46.2533L75.3761 52.4306C75.9552 55.0143 75.9828 57.6911 75.4573 60.2863C74.9318 62.8815 73.8649 65.3367 72.3263 67.4916C70.7877 69.6466 68.812 71.4528 66.5281 72.7925C64.2442 74.1322 61.7034 74.9752 59.0716 75.2665C56.4398 75.5578 53.7762 75.2908 51.2546 74.483C48.733 73.6752 46.4101 72.3447 44.4375 70.5783C42.4649 68.812 40.8869 66.6496 39.8066 64.2321C38.7263 61.8147 38.1679 59.1966 38.1679 56.5488L9.91992 56.5488Z" stroke="url(#paint4_radial_279_17)" stroke-width="1.92556" mask="url(#path-6-inside-4_279_17)"/>
</g>
<defs>
<filter id="filter0_b_279_17" x="-9.09654" y="-9.54771" width="132.193" height="132.193" filterUnits="userSpaceOnUse" color-interpolation-filters="sRGB">
<feFlood flood-opacity="0" result="BackgroundImageFix"/>
<feGaussianBlur in="BackgroundImageFix" stdDeviation="4.81389"/>
<feComposite in2="SourceAlpha" operator="in" result="effect1_backgroundBlur_279_17"/>
<feBlend mode="normal" in="SourceGraphic" in2="effect1_backgroundBlur_279_17" result="shape"/>
</filter>
<filter id="filter1_b_279_17" x="0.292135" y="-0.159037" width="102.84" height="67.5871" filterUnits="userSpaceOnUse" color-interpolation-filters="sRGB">
<feFlood flood-opacity="0" result="BackgroundImageFix"/>
<feGaussianBlur in="BackgroundImageFix" stdDeviation="4.81389"/>
<feComposite in2="SourceAlpha" operator="in" result="effect1_backgroundBlur_279_17"/>
<feBlend mode="normal" in="SourceGraphic" in2="effect1_backgroundBlur_279_17" result="shape"/>
</filter>
<filter id="filter2_b_279_17" x="10.0905" y="-0.159037" width="103.617" height="66.3357" filterUnits="userSpaceOnUse" color-interpolation-filters="sRGB">
<feFlood flood-opacity="0" result="BackgroundImageFix"/>
<feGaussianBlur in="BackgroundImageFix" stdDeviation="4.81389"/>
<feComposite in2="SourceAlpha" operator="in" result="effect1_backgroundBlur_279_17"/>
<feBlend mode="normal" in="SourceGraphic" in2="effect1_backgroundBlur_279_17" result="shape"/>
</filter>
<filter id="filter3_b_279_17" x="47.3722" y="-0.159037" width="66.3357" height="66.3357" filterUnits="userSpaceOnUse" color-interpolation-filters="sRGB">
<feFlood flood-opacity="0" result="BackgroundImageFix"/>
<feGaussianBlur in="BackgroundImageFix" stdDeviation="4.81389"/>
<feComposite in2="SourceAlpha" operator="in" result="effect1_backgroundBlur_279_17"/>
<feBlend mode="normal" in="SourceGraphic" in2="effect1_backgroundBlur_279_17" result="shape"/>
</filter>
<filter id="filter4_b_279_17" x="0.292135" y="36.6254" width="113.416" height="76.6313" filterUnits="userSpaceOnUse" color-interpolation-filters="sRGB">
<feFlood flood-opacity="0" result="BackgroundImageFix"/>
<feGaussianBlur in="BackgroundImageFix" stdDeviation="4.81389"/>
<feComposite in2="SourceAlpha" operator="in" result="effect1_backgroundBlur_279_17"/>
<feBlend mode="normal" in="SourceGraphic" in2="effect1_backgroundBlur_279_17" result="shape"/>
</filter>
<radialGradient id="paint0_radial_279_17" cx="0" cy="0" r="1" gradientUnits="userSpaceOnUse" gradientTransform="translate(65.6278 34.71) rotate(89.746) scale(101.668 59.812)">
<stop stop-color="white"/>
<stop offset="1" stop-color="#213B4A"/>
</radialGradient>
<radialGradient id="paint1_radial_279_17" cx="0" cy="0" r="1" gradientUnits="userSpaceOnUse" gradientTransform="translate(64.1932 38.341) rotate(89.746) scale(84.7643 49.8674)">
<stop stop-color="white"/>
<stop offset="1" stop-color="#213B4A"/>
</radialGradient>
<radialGradient id="paint2_radial_279_17" cx="0" cy="0" r="1" gradientUnits="userSpaceOnUse" gradientTransform="translate(64.1932 38.341) rotate(89.746) scale(84.7643 49.8674)">
<stop stop-color="white"/>
<stop offset="1" stop-color="#213B4A"/>
</radialGradient>
<radialGradient id="paint3_radial_279_17" cx="0" cy="0" r="1" gradientUnits="userSpaceOnUse" gradientTransform="translate(64.1932 38.341) rotate(89.746) scale(84.7643 49.8674)">
<stop stop-color="white"/>
<stop offset="1" stop-color="#213B4A"/>
</radialGradient>
<radialGradient id="paint4_radial_279_17" cx="0" cy="0" r="1" gradientUnits="userSpaceOnUse" gradientTransform="translate(64.1932 38.341) rotate(89.746) scale(84.7643 49.8674)">
<stop stop-color="white"/>
<stop offset="1" stop-color="#213B4A"/>
</radialGradient>
</defs>
</svg>
