<svg width="99" height="98" viewBox="0 0 99 98" fill="none" xmlns="http://www.w3.org/2000/svg">
<g id="Group 480">
<g id="Group 418">
<g id="Rectangle 126" filter="url(#filter0_b_820_1831)">
<rect x="0.640625" y="0.212891" width="97.5184" height="97.5184" rx="13.3013" fill="#071619" fill-opacity="0.2"/>
<rect x="1.05629" y="0.628557" width="96.6871" height="96.6871" rx="12.8857" stroke="url(#paint0_radial_820_1831)" stroke-width="0.831333"/>
</g>
<g id="Group 507">
<path id="Vector 53" d="M57.8203 57.6699L73.2572 73.0145" stroke="url(#paint1_radial_820_1831)" stroke-width="1.39613"/>
<g id="Vector">
<mask id="path-4-inside-1_820_1831" fill="white">
<path d="M70.7318 70.1243L64.2757 63.6682L58.6028 57.9954M44.9074 63.6682C42.3639 63.6682 39.8453 63.1673 37.4954 62.1939C35.1456 61.2206 33.0104 59.7939 31.2119 57.9954C29.4134 56.1969 27.9867 54.0617 27.0134 51.7119C26.04 49.362 25.5391 46.8434 25.5391 44.2999C25.5391 41.7565 26.04 39.2379 27.0134 36.888C27.9867 34.5381 29.4134 32.403 31.2119 30.6045C33.0104 28.806 35.1456 27.3793 37.4954 26.406C39.8453 25.4326 42.3639 24.9316 44.9074 24.9316C50.0442 24.9316 54.9706 26.9722 58.6028 30.6045C62.2351 34.2367 64.2757 39.1631 64.2757 44.2999C64.2757 49.4367 62.2351 54.3631 58.6028 57.9954C54.9706 61.6277 50.0442 63.6682 44.9074 63.6682Z"/>
</mask>
<path d="M44.9074 63.6682V65.0644V63.6682ZM25.5391 44.2999H24.1429H25.5391ZM64.2757 44.2999H62.8795H64.2757ZM44.9074 62.2721C42.5472 62.2721 40.2102 61.8072 38.0297 60.9041L36.9612 63.4838C39.4804 64.5273 42.1805 65.0644 44.9074 65.0644V62.2721ZM38.0297 60.9041C35.8492 60.0009 33.868 58.6771 32.1991 57.0082L30.2247 58.9826C32.1528 60.9108 34.4419 62.4403 36.9612 63.4838L38.0297 60.9041ZM32.1991 57.0082C30.5303 55.3393 29.2064 53.3581 28.3032 51.1776L25.7235 52.2461C26.767 54.7654 28.2965 57.0545 30.2247 58.9826L32.1991 57.0082ZM28.3032 51.1776C27.4001 48.9971 26.9352 46.6601 26.9352 44.2999H24.1429C24.1429 47.0268 24.68 49.7269 25.7235 52.2461L28.3032 51.1776ZM26.9352 44.2999C26.9352 41.9398 27.4001 39.6028 28.3032 37.4223L25.7235 36.3537C24.68 38.873 24.1429 41.5731 24.1429 44.2999H26.9352ZM28.3032 37.4223C29.2064 35.2418 30.5303 33.2606 32.1991 31.5917L30.2247 29.6173C28.2965 31.5454 26.767 33.8345 25.7235 36.3537L28.3032 37.4223ZM32.1991 31.5917C33.868 29.9228 35.8492 28.599 38.0297 27.6958L36.9612 25.1161C34.4419 26.1596 32.1528 27.6891 30.2247 29.6173L32.1991 31.5917ZM38.0297 27.6958C40.2102 26.7926 42.5472 26.3278 44.9074 26.3278V23.5355C42.1805 23.5355 39.4804 24.0726 36.9612 25.1161L38.0297 27.6958ZM44.9074 26.3278C49.6739 26.3278 54.2452 28.2213 57.6156 31.5917L59.59 29.6173C55.6959 25.7232 50.4144 23.5355 44.9074 23.5355V26.3278ZM57.6156 31.5917C60.986 34.9621 62.8795 39.5334 62.8795 44.2999H65.6718C65.6718 38.7929 63.4841 33.5114 59.59 29.6173L57.6156 31.5917ZM62.8795 44.2999C62.8795 49.0665 60.986 53.6378 57.6156 57.0082L59.59 58.9826C63.4841 55.0885 65.6718 49.807 65.6718 44.2999H62.8795ZM57.6156 57.0082C54.2452 60.3786 49.6739 62.2721 44.9074 62.2721V65.0644C50.4144 65.0644 55.6959 62.8767 59.59 58.9826L57.6156 57.0082ZM71.719 69.1371L65.2629 62.681L63.2885 64.6555L69.7446 71.1116L71.719 69.1371ZM65.2629 62.681L59.59 57.0082L57.6156 58.9826L63.2885 64.6555L65.2629 62.681Z" fill="url(#paint2_radial_820_1831)" mask="url(#path-4-inside-1_820_1831)"/>
</g>
</g>
</g>
</g>
<defs>
<filter id="filter0_b_820_1831" x="-7.6727" y="-8.10044" width="114.145" height="114.145" filterUnits="userSpaceOnUse" color-interpolation-filters="sRGB">
<feFlood flood-opacity="0" result="BackgroundImageFix"/>
<feGaussianBlur in="BackgroundImageFix" stdDeviation="4.15666"/>
<feComposite in2="SourceAlpha" operator="in" result="effect1_backgroundBlur_820_1831"/>
<feBlend mode="normal" in="SourceGraphic" in2="effect1_backgroundBlur_820_1831" result="shape"/>
</filter>
<radialGradient id="paint0_radial_820_1831" cx="0" cy="0" r="1" gradientUnits="userSpaceOnUse" gradientTransform="translate(56.8497 30.1149) rotate(89.746) scale(87.7876 51.646)">
<stop stop-color="white"/>
<stop offset="1" stop-color="#213B4A"/>
</radialGradient>
<radialGradient id="paint1_radial_820_1831" cx="0" cy="0" r="1" gradientUnits="userSpaceOnUse" gradientTransform="translate(66.718 62.375) rotate(45.6052) scale(19.0476 11.2074)">
<stop stop-color="white"/>
<stop offset="1" stop-color="#213B4A"/>
</radialGradient>
<radialGradient id="paint2_radial_820_1831" cx="0" cy="0" r="1" gradientUnits="userSpaceOnUse" gradientTransform="translate(51.5879 38.789) rotate(45.777) scale(55.9349 32.9069)">
<stop stop-color="white"/>
<stop offset="1" stop-color="#213B4A"/>
</radialGradient>
</defs>
</svg>
