<svg width="25" height="24" viewBox="0 0 25 24" fill="none" xmlns="http://www.w3.org/2000/svg">
<path id="Vector" fill-rule="evenodd" clip-rule="evenodd" d="M8.42301 0C4.19431 0 0.765625 3.42868 0.765625 7.65738V14.5073C0.765625 19.2852 5.09228 22.8961 9.79294 22.0417L15.8306 20.9445C16.7905 20.7697 17.7804 20.9013 18.6614 21.3206L23.113 23.4406L24.2863 24V7.65755C24.2863 3.42885 20.8576 0.000168474 16.6289 0.000168474L8.42301 0ZM2.40608 7.65738C2.40608 4.33483 5.10046 1.64045 8.42301 1.64045H16.6286C19.9512 1.64045 22.6456 4.33483 22.6456 7.65738V21.4005L19.3664 19.8389C18.1752 19.272 16.8354 19.0934 15.5362 19.3294L9.49955 20.4275C5.80661 21.0987 2.40608 18.2614 2.40608 14.5073V7.65738ZM13.134 5.55993C12.8792 5.06447 12.1722 5.06447 11.9175 5.55993L10.9002 7.53988C10.5082 8.30235 9.88769 8.92284 9.12617 9.31394L7.14528 10.3312C6.65076 10.586 6.65076 11.2939 7.14528 11.5477L9.12617 12.5659C9.88769 12.957 10.5082 13.5775 10.9002 14.34L11.9175 16.3199C12.1722 16.8154 12.8792 16.8154 13.134 16.3199L14.1513 14.34C14.5433 13.5775 15.1638 12.957 15.9253 12.5659L17.9062 11.5477C18.4007 11.2939 18.4007 10.586 17.9062 10.3312L15.9253 9.31394C15.1638 8.92284 14.5433 8.30235 14.1513 7.53988L13.134 5.55993Z" fill="url(#paint0_linear_596_10130)"/>
<defs>
<linearGradient id="paint0_linear_596_10130" x1="5.18426" y1="-6.41745e-08" x2="19.6567" y2="27.4289" gradientUnits="userSpaceOnUse">
<stop stop-color="white"/>
<stop offset="1" stop-color="#2F70A5"/>
</linearGradient>
</defs>
</svg>
