<svg width="891" height="222" viewBox="0 0 891 222" fill="none" xmlns="http://www.w3.org/2000/svg">
<g opacity="0.4">
<mask id="mask0_1149_15627" style="mask-type:alpha" maskUnits="userSpaceOnUse" x="0" y="0" width="891" height="222">
<rect y="0.641113" width="891" height="221" fill="url(#paint0_linear_1149_15627)"/>
</mask>
<g mask="url(#mask0_1149_15627)">
<g opacity="0.79" clip-path="url(#clip0_1149_15627)">
<path d="M-277.177 15.1133C-220.966 4.40139 -146.953 4.26417 -84.1318 10.8199C-19.469 17.5724 33.0699 31.2727 75.7384 46.0987C123.065 62.5404 159.929 81.0224 203.266 98.2526C242.568 113.875 288.292 128.376 343.919 139.613C399.948 150.934 465.516 158.577 534.617 159.905C601.632 161.19 666.853 156.084 720.329 144.884C826.77 122.606 870.847 85.8889 929.351 54.0402C960.771 36.9397 998.209 20.447 1051.17 7.92826C1103.56 -4.39827 1166.75 -12.6424 1234.46 -15.9836C1251.36 -16.8073 1268.45 -17.3149 1285.61 -17.503C1286.99 -17.5202 1287 -18.1205 1285.62 -18.1034C1219.44 -17.3219 1155.21 -11.912 1098.82 -2.36976C1041.11 7.39416 995.982 21.2557 960.641 37.1874C890.057 69.0012 854.447 106.918 759.62 134.342C711.658 148.216 650.321 157.604 580.495 159.228C507.75 160.91 434.896 154.943 372.799 144.279C312.614 133.958 262.352 119.6 220.383 103.851C174.709 86.711 137.732 67.9323 91.6923 50.8587C51.6262 36.0139 3.90572 22.1486 -56.0091 13.6358C-111.296 5.79189 -178.476 3.05135 -237.377 8.81021C-251.869 10.2306 -265.616 12.1739 -278.271 14.5911C-279.405 14.8052 -278.332 15.3294 -277.191 15.1133L-277.177 15.1133Z" fill="#1FABB2"/>
<path d="M-280.699 21.6141C-226.204 11.5465 -155.681 11.0106 -94.3601 16.6604C-30.7176 22.5246 22.3939 35.0581 66.0495 48.967C114.235 64.317 152.395 81.7829 196.152 98.0698C235.417 112.678 280.243 126.188 333.859 136.766C388.285 147.509 450.988 154.921 517.311 156.852C584.157 158.799 650.921 154.807 706.807 144.476C817.777 123.962 866.512 87.6575 928.848 56.5228C962.121 39.9033 1001.56 24.0742 1055.6 12.2237C1107.36 0.873532 1169.42 -6.8075 1234.38 -10.0991C1251.13 -10.9426 1268.07 -11.492 1285.09 -11.7441C1286.47 -11.7653 1286.48 -12.3657 1285.09 -12.3446C1220.88 -11.3509 1158.52 -6.22585 1102.89 2.63088C1045.44 11.7873 999.158 24.8141 962.293 40.052C887.154 71.1111 847.572 109.019 746.66 134.953C696.301 147.894 633.559 155.86 564.404 156.675C492.883 157.518 422.116 151.444 361.042 141.048C303.078 131.179 254.007 117.735 212.134 102.904C166.849 86.8678 128.976 69.3109 82.6426 53.5011C41.7257 39.56 -6.65298 26.7791 -65.7554 19.1758C-120.366 12.1448 -185.469 10.0061 -242.435 15.6117C-256.317 16.9822 -269.529 18.8225 -281.778 21.0919C-282.919 21.304 -281.847 21.8281 -280.699 21.6141Z" fill="#1EA4AB"/>
<path d="M-284.22 28.1136C-230.682 18.527 -162.373 17.7671 -102.052 22.7989C-38.9297 28.0608 14.7096 39.7636 59.5158 52.9941C107.772 67.2395 146.905 83.5801 191.07 98.7677C232.137 112.886 278.572 125.832 333.303 135.805C442.457 155.697 587.003 162.299 700.872 142.515C810.816 123.416 863.104 88.9697 927.855 59.2867C963.119 43.1245 1004.58 27.905 1059.75 16.671C1111.7 6.09005 1172.59 -1.07072 1236.01 -4.31777C1252.06 -5.13373 1268.27 -5.69553 1284.57 -6.00049C1285.94 -6.02765 1285.95 -6.62804 1284.57 -6.60091C1221.61 -5.39135 1160.45 -0.435634 1105.19 7.93423C1048.45 16.5388 1001.56 28.7409 963.456 43.2198C886.19 72.5781 842.667 108.819 742.129 133.209C691.056 145.599 628.482 153.094 560.215 153.894C490.028 154.719 420.268 149.181 359.155 139.498C301.803 130.409 252.333 117.925 209.516 103.995C163.15 88.9136 123.911 72.2464 76.7408 57.3503C34.8808 44.1483 -13.8751 32.1827 -72.4072 25.1698C-127.164 18.6087 -191.688 16.8383 -248.03 22.4581C-261.132 23.7702 -273.646 25.4922 -285.336 27.5913C-286.491 27.7993 -285.419 28.3215 -284.256 28.1135L-284.22 28.1136Z" fill="#1D9EA4"/>
<path d="M-287.731 34.6201C-234.524 25.4026 -167.527 24.5279 -107.698 29.1357C-46.2291 33.8693 7.11444 44.5804 52.3844 56.8919C100.833 70.0733 141.054 85.2969 185.712 99.4215C227.937 112.765 274.979 124.927 329.541 134.227C439.197 152.922 581.107 159.058 694.912 140.565C803.823 122.868 859.686 90.2769 926.888 62.0736C963.689 46.6374 1006.4 32.2649 1061.47 21.6811C1113.25 11.7359 1172.84 4.95477 1234.68 1.64809C1251 0.777983 1267.5 0.152474 1284.08 -0.225769C1285.44 -0.256953 1285.46 -0.859316 1284.08 -0.826182C1222.25 0.596086 1162.15 5.4054 1107.22 13.3277C1050.62 21.5184 1002.81 33.0788 963.286 46.9802C884.423 74.7197 836.508 109.25 735.792 131.936C684.186 143.561 622.16 150.418 555.363 151.155C486.259 151.91 417.393 146.826 356.219 137.782C299.1 129.339 249.031 117.655 205.027 104.484C157.888 90.3743 117.246 74.6848 69.2605 60.7866C26.9081 48.5155 -21.7169 37.547 -78.8117 31.2137C-132.905 25.2174 -195.624 23.7295 -250.774 29.0374C-264.096 30.3272 -276.848 32.0271 -288.796 34.106C-289.959 34.302 -288.886 34.8322 -287.71 34.6282L-287.731 34.6201Z" fill="#1C979D"/>
<path d="M-291.245 41.1212C-238.377 32.2667 -172.662 31.2814 -113.355 35.473C-52.8652 39.7509 0.554321 49.6516 46.6097 61.2054C96.0372 73.5997 138.027 88.0371 184.338 101.287C227.522 113.649 275.207 124.776 329.315 133.202C439.008 150.286 577.066 155.65 689.588 138.502C797.036 122.124 856.401 91.523 926.01 64.8574C963.832 50.3715 1007.11 36.9858 1061.12 27.0926C1113.87 17.4271 1173.86 10.8396 1235.92 7.45759C1251.7 6.59901 1267.56 5.9689 1283.54 5.53136C1284.9 5.49417 1284.92 4.89381 1283.54 4.93094C1222.42 6.57718 1162.99 11.303 1108.14 18.8798C1052.02 26.662 1003.68 37.556 962.934 50.7866C882.402 76.9191 829.993 109.768 728.864 130.742C677.464 141.401 617.04 147.603 552.631 148.378C484.816 149.194 416.965 144.652 355.787 136.383C298.75 128.671 247.952 117.869 202.618 105.549C154.32 92.422 112.059 77.6795 63.2443 64.6929C19.7483 53.1183 -29.4829 42.8962 -86.3587 37.1581C-140.196 31.723 -201.742 30.6057 -255.903 35.839C-268.612 37.0709 -280.819 38.6659 -292.332 40.599C-293.508 40.7949 -292.429 41.3191 -291.245 41.1212Z" fill="#1B9096"/>
<path d="M-294.757 47.6223C-242.86 39.2306 -179.287 38.0676 -121.152 41.6847C-60.7892 45.4377 -6.6059 54.6227 40.7936 65.5247C90.5273 76.9595 133.906 90.323 181.127 102.511C225.469 113.963 273.854 124.198 327.716 131.887C437.316 147.533 571.893 152.33 683.59 136.536C790.774 121.38 853.793 92.3933 926.714 67.1225C965.901 53.536 1010.18 41.1466 1063.71 31.9842C1116.09 23.0079 1174.67 16.8096 1235.02 13.3975C1250.91 12.4987 1266.93 11.799 1283.06 11.2987C1284.42 11.2555 1284.44 10.6551 1283.07 10.6983C1223.24 12.5521 1165 17.124 1110.66 24.2335C1054.81 31.5803 1005.74 41.7853 963.538 54.3202C881.173 78.795 824.393 109.841 723.38 129.232C671.13 139.254 610.824 144.96 547.081 145.642C480.751 146.353 414.339 142.244 353.581 134.693C297.5 127.722 246.446 117.9 200.411 106.581C150.968 94.4325 106.874 80.6942 57.165 68.6251C12.518 57.7848 -37.355 48.275 -93.9616 43.1503C-146.914 38.3488 -206.339 37.5071 -259.165 42.467C-271.935 43.6684 -284.229 45.2237 -295.866 47.11C-296.101 47.1507 -296.27 47.2155 -296.336 47.2908C-296.403 47.3661 -296.362 47.4459 -296.222 47.5136C-296.082 47.5813 -295.854 47.6314 -295.586 47.6535C-295.318 47.6756 -295.032 47.668 -294.786 47.6322L-294.757 47.6223Z" fill="#1A8A8F"/>
<path d="M-298.282 54.1251C-246.745 46.0925 -184.455 44.8348 -126.913 48.0515C-68.4543 51.3154 -15.1402 59.4886 32.5157 69.3568C84.0099 80.0192 129.787 92.6127 179.163 103.988C224.486 114.431 273.328 123.695 326.656 130.601C436.264 144.786 567.381 149.023 678.268 134.476C784.055 120.598 850.641 93.6078 925.984 69.9487C967.052 57.0494 1012.82 45.4197 1066.74 36.8252C1120.02 28.3224 1178.75 22.4408 1239.01 19.0445C1253.51 18.2274 1268.11 17.5614 1282.8 17.0466C1284.17 16.9974 1283.59 16.4169 1282.23 16.4641C1222.46 18.5953 1163.81 23.1423 1109.1 30.1029C1054.23 37.0849 1005.22 46.6456 962.227 58.4012C878.278 81.3613 816.656 110.563 714.964 128.214C662.901 137.272 603.088 142.332 541.491 142.891C477.298 143.501 412.97 139.882 353.26 133.175C296.431 126.787 243.968 117.65 195.993 107.03C146.25 96.0196 100.931 83.5418 51.0659 72.571C5.18903 62.4769 -45.3117 53.7133 -101.649 49.156C-154.231 44.9042 -212.404 44.3832 -264.326 49.2603C-276.469 50.4033 -288.197 51.857 -299.362 53.6029C-299.597 53.6436 -299.766 53.7084 -299.832 53.7837C-299.899 53.859 -299.858 53.9389 -299.718 54.0065C-299.578 54.0742 -299.35 54.1244 -299.082 54.1465C-298.815 54.1686 -298.528 54.1609 -298.282 54.1251Z" fill="#188388"/>
<path d="M-301.804 60.6248C-250.254 52.8964 -188.68 51.5802 -131.345 54.4879C-73.5867 57.4211 -20.2833 64.9157 28.2082 74.0344C79.2708 83.6406 126.009 94.8985 175.721 105.04C222.11 114.51 271.337 122.864 324.31 129.093C433.653 141.949 561.589 145.77 671.839 132.562C777.662 119.883 848.203 94.5354 927.051 72.3377C969.21 60.4691 1015.35 49.8354 1068.39 41.9282C1121.43 34.021 1179.15 28.4201 1238.15 24.9632C1252.79 24.1052 1267.53 23.3831 1282.35 22.7967C1283.72 22.7415 1283.14 22.161 1281.78 22.2142C1164.01 26.9252 1051.94 39.8543 963.015 61.9441C877.334 83.2308 811.09 110.485 709.715 126.614C657.657 134.905 599.049 139.536 538.887 140.111C475.683 140.745 412.263 137.573 352.671 131.552C297.121 125.938 245.054 117.898 196.578 108.469C145.396 98.5139 98.0921 87.1039 47.3117 77.0044C0.491508 67.6995 -50.0703 59.6282 -105.757 55.4775C-158.155 51.5706 -215.504 51.1666 -267.109 55.8346C-279.477 56.9589 -291.449 58.3899 -302.883 60.1106C-304.096 60.2924 -303.016 60.8166 -301.804 60.6328L-301.804 60.6248Z" fill="#177D82"/>
<path d="M-305.324 67.1301C-255.103 59.9033 -196.145 58.4257 -140.405 60.7273C-82.9309 63.1031 -29.1215 69.821 20.5644 78.1253C72.041 86.7283 120.219 96.7765 170.719 105.808C217.723 114.215 266.861 121.679 318.999 127.258C429.96 139.133 557.253 142.715 668.66 130.258C771.688 118.742 845.242 95.7949 925.527 75.4717C969.417 64.3637 1016.76 54.4589 1069.97 47.0547C1123.19 39.6504 1180.31 34.3296 1238.53 30.8119C1252.87 29.9462 1267.29 29.1969 1281.78 28.5639C1283.14 28.5027 1282.56 27.9222 1281.21 27.9814C1165.8 33.1131 1054.91 45.0537 963.748 65.5224C876.34 85.1499 805.462 110.392 704.353 125.029C650.408 132.843 591.307 136.97 530.312 137.398C468.564 137.825 406.712 134.927 347.942 129.514C293.3 124.475 241.478 117.304 192.395 108.905C140.189 99.9717 90.9937 89.7477 39.2044 80.6333C-8.55258 72.2277 -59.4988 64.9797 -114.723 61.473C-166.107 58.2042 -221.378 58.0918 -271.577 62.5747C-283.58 63.6482 -295.231 64.9992 -306.411 66.6138C-307.638 66.7916 -306.551 67.3138 -305.331 67.136L-305.324 67.1301Z" fill="#16767B"/>
<path d="M-308.834 73.6282C-204.866 59.2634 -83.5222 68.0666 14.5206 82.535C66.2318 90.1661 115.743 98.9362 166.959 106.804C215.387 114.239 265.34 120.893 317.69 125.834C428.034 136.254 551.645 139.433 662.119 128.34C764.847 118.025 842.556 96.9362 925.73 78.1864C970.833 68.0214 1018.83 58.9995 1071.57 52.168C1124.94 45.2546 1181.48 40.2179 1238.97 36.6496C1252.99 35.7788 1267.1 34.9997 1281.28 34.3122C1282.64 34.245 1282.07 33.6646 1280.71 33.7318C1166.62 39.3305 1056.31 50.4466 962.56 69.5171C874.387 87.4546 799.227 110.338 699.072 123.429C588.2 137.922 461.293 137.195 344.678 127.592C290.384 123.12 238.357 116.746 188.315 109.343C135.859 101.581 85.5165 92.7664 33.5995 84.7384C-14.4566 77.3064 -64.8551 70.8709 -118.813 67.785C-170.399 64.8357 -225.37 64.8705 -275.583 69.2533C-287.389 70.2857 -298.879 71.5738 -309.949 73.1059C-311.183 73.2756 -310.097 73.7979 -308.863 73.6281L-308.834 73.6282Z" fill="#156F74"/>
<path d="M-312.346 80.1316C-209.314 66.5039 -90.517 74.2513 9.03308 87.0399C109.88 99.9953 206.922 115.261 313.741 124.148C424.149 133.327 545.159 136.265 655.562 126.418C758.47 117.241 840.521 97.9609 926.984 80.7939C972.605 71.7355 1020.47 63.6838 1072 57.4765C1125.38 51.0475 1181.31 46.2408 1238.02 42.5916C1252.19 41.6773 1266.43 40.84 1280.74 40.0796C1282.1 40.0063 1281.53 39.4259 1280.17 39.4991C1167.71 45.524 1058.3 55.8507 962.237 73.3318C871.398 89.8589 790.893 110.858 689.134 122.376C578.795 134.867 456.019 133.995 341.383 125.672C230.416 117.614 129.409 102.386 26.4089 88.6608C-68.3675 76.0252 -175.272 67.1452 -278.795 75.8717C-290.666 76.8756 -302.244 78.1249 -313.433 79.6093C-314.674 79.773 -313.587 80.2953 -312.346 80.1316Z" fill="#14696D"/>
<path d="M-315.869 86.6315C-213.5 73.704 -97.1858 80.5139 3.79308 91.5704C105.467 102.707 206.037 115.079 312.046 122.613C422.218 130.438 540.355 133.031 650.243 124.358C751.682 116.35 837.069 99.3755 925.206 84.0197C972.917 75.7093 1022.34 68.2836 1074.76 62.4997C1127.84 56.6401 1182.86 52.1103 1238.45 48.4232C1252.32 47.5038 1266.23 46.6386 1280.2 45.8276C1281.55 45.7483 1280.98 45.1679 1279.63 45.2472C1168.69 51.7277 1060.17 61.2991 961.876 77.1411C870.035 91.9474 785.723 110.481 684.924 120.61C573.976 131.762 453.228 130.961 338.643 123.774C230.996 117.025 128.03 104.977 25.9709 93.4105C-24.7826 87.6581 -76.4853 82.4608 -130.785 80.2284C-181.228 78.1517 -233.936 78.5328 -282.777 82.5562C-294.458 83.5221 -305.878 84.712 -316.956 86.1173C-318.204 86.275 -317.118 86.7972 -315.869 86.6395L-315.869 86.6315Z" fill="#136266"/>
<path d="M-319.374 93.1372C-216.95 80.8162 -102.503 86.9031 0.226796 96.2565C51.581 100.932 102.986 105.464 154.874 109.641C205.951 113.754 257.051 117.87 309.03 120.963C418.607 127.485 533.834 129.832 643.091 122.442C744.969 115.553 834.618 100.593 925.829 86.8775C974.803 79.5122 1024.99 72.8778 1077.4 67.6022C1130.37 62.2645 1184.7 57.9765 1239.43 54.2402C1252.81 53.3258 1266.25 52.4442 1279.72 51.5955C1281.07 51.5102 1280.5 50.9298 1279.15 51.015C1170.63 57.8824 1063.66 66.6327 964.173 80.6112C869.724 93.8852 780.563 110.272 678.646 119.082C567.72 128.673 449.689 127.875 335.908 121.867C283.906 119.124 232.783 115.276 181.906 111.194C128.206 106.885 74.6134 102.507 21.547 97.5952C-28.5099 92.9621 -78.8764 88.5842 -131.235 86.6648C-182.511 84.7854 -235.807 85.2244 -285.544 89.1445C-297.459 90.0884 -309.13 91.2503 -320.482 92.6229C-321.745 92.7765 -320.658 93.2967 -319.402 93.1471L-319.374 93.1372Z" fill="#125B5F"/>
<path d="M-322.91 99.6334C-221.25 88.0143 -109.3 93.2156 -5.83582 100.686C45.9106 104.421 97.9111 107.566 150.242 110.548C201.642 113.474 252.824 116.728 304.52 119.224C414.297 124.523 527.791 126.668 637.2 120.406C737.846 114.652 830.219 102.123 922.783 90.2572C973 83.819 1023.93 77.8837 1076.52 73.0331C1129.79 68.1148 1184.01 64.0085 1238.43 60.1651C1252 59.2059 1265.58 58.2642 1279.18 57.3398C1279.44 57.3166 1279.66 57.2662 1279.79 57.1989C1279.92 57.1315 1279.96 57.0525 1279.88 56.978C1279.81 56.9035 1279.64 56.8393 1279.4 56.7986C1279.17 56.7579 1278.89 56.7439 1278.62 56.7594C1171 64.1064 1064.24 72.2429 962.622 84.6067C866.877 96.2589 774.08 110.107 672.321 117.507C561.117 125.594 445.065 124.761 331.723 119.863C280.119 117.634 229.121 114.541 178.038 111.539C123.486 108.331 68.7666 105.447 14.7342 101.552C-35.6149 97.9246 -85.9782 94.2851 -137.794 92.8501C-188.571 91.4427 -240.9 92.0593 -290.049 95.8614C-301.588 96.7577 -312.92 97.8428 -323.989 99.1112C-325.259 99.2568 -324.172 99.779 -322.91 99.6334Z" fill="#115558"/>
<path d="M-326.676 106.164C-224.819 95.1424 -114.672 99.6308 -9.96481 105.243C41.4356 107.997 93.0494 109.716 144.95 111.461C195.84 113.173 246.497 115.519 297.335 117.407C407.578 121.505 519.968 123.526 629.873 118.441C731.416 113.74 827.671 103.369 923.215 93.1907C973.906 87.7929 1024.93 82.6805 1076.95 78.3382C1130.07 73.9077 1183.76 70.0157 1237.41 66.1095C1251.16 65.1083 1264.91 64.1044 1278.65 63.0978C1278.92 63.0757 1279.14 63.0253 1279.28 62.9573C1279.41 62.8893 1279.45 62.809 1279.37 62.7335C1279.3 62.6579 1279.12 62.5931 1278.88 62.5528C1278.64 62.5125 1278.35 62.4998 1278.08 62.5174C1170.51 70.4129 1062.85 78.0239 958.516 88.833C863.117 98.7211 768.644 109.745 668.67 115.761C558.399 122.396 445.213 121.725 333.298 118.067C281.691 116.378 230.332 114.042 178.82 112.07C124.29 109.983 69.3761 108.705 15.1224 105.954C-36.1497 103.348 -87.0896 100.283 -139.101 99.1697C-189.521 98.0899 -241.047 98.7514 -290.008 102.248C-302.655 103.152 -315.09 104.266 -327.247 105.584C-328.516 105.722 -327.967 106.304 -326.676 106.164Z" fill="#104E51"/>
<path d="M-330.198 112.666C-229.355 102.359 -121.547 105.963 -17.095 109.648C35.8156 111.515 88.6124 111.877 141.788 112.456C193.222 113.018 244.464 114.525 295.743 115.824C405.978 118.611 517.087 120.335 626.892 116.29C727.994 112.559 826.422 104.555 923.526 96.2156C974.901 91.7949 1026.32 87.4605 1078.28 83.5903C1131.57 79.6208 1185.13 75.9204 1238.38 71.9227C1251.67 70.9252 1264.92 69.9049 1278.15 68.8618C1279.48 68.7584 1278.92 68.176 1277.58 68.2814C1171.79 76.5975 1064.7 83.522 959.556 92.4869C862.588 100.748 765.411 109.305 665.129 114.056C554.535 119.305 442.432 118.655 330.697 116.07C279.231 114.886 227.853 113.279 176.328 112.347C121.965 111.353 67.4297 111.628 13.1771 110.038C-39.3554 108.502 -91.4744 106.055 -144.334 105.375C-194.635 104.73 -245.71 105.563 -294.527 108.974C-306.802 109.832 -318.899 110.871 -330.768 112.086C-332.052 112.217 -331.489 112.8 -330.198 112.666Z" fill="#0F484A"/>
<path d="M-333.715 119.17C-283.708 114.362 -230.527 112.52 -177.655 112.207C-125.32 111.897 -73.3472 113.485 -21.1335 114.311C31.0802 115.137 83.1254 113.947 135.232 113.42C186.728 112.898 238.169 113.433 289.66 114.129C401.866 115.646 514.216 117.198 626.095 114.124C726.682 111.353 826.367 105.741 924.479 99.2389C976.501 95.7912 1028.39 92.203 1080.45 88.7855C1133.25 85.3206 1186.07 81.8457 1238.33 77.8005C1251.48 76.7798 1264.58 75.7229 1277.64 74.6298C1278.95 74.5204 1278.36 73.9379 1277.06 74.0494C1173.49 82.7496 1067.21 88.9746 962.089 96.0962C863.18 102.798 763.328 108.895 662.114 112.404C550.165 116.275 437.646 115.559 324.996 114.018C273.384 113.308 221.658 112.45 169.984 112.586C116.353 112.734 62.8648 114.207 9.21394 114.016C-42.358 113.833 -93.7053 111.883 -145.284 111.602C-196.181 111.323 -247.616 112.257 -297.128 115.562C-309.697 116.4 -322.088 117.407 -334.3 118.584C-335.591 118.707 -335.021 119.29 -333.73 119.164L-333.715 119.17Z" fill="#0E4143"/>
<path d="M-337.243 125.674C-235.353 116.5 -128.729 118.878 -23.1228 118.643C28.1998 118.527 78.2791 116.312 129.015 114.549C180.591 112.756 232.524 112.421 284.519 112.499C395.507 112.662 506.452 114.007 617.286 112.185C719.978 110.486 822.2 107.226 923.499 102.422C1028.91 97.4287 1135.04 91.8938 1237.8 83.707C1250.97 82.6597 1264.07 81.5514 1277.11 80.3822C1278.42 80.2648 1277.83 79.6843 1276.54 79.8018C1173.7 89.007 1066.57 94.6065 960.332 100.001C858.282 105.164 755.268 108.817 651.717 110.945C541.183 113.236 430.55 112.44 319.736 112C268.529 111.796 217.158 111.698 166.131 112.855C112.702 114.076 60.0658 117.134 6.43886 117.826C-45.2595 118.506 -97.1358 117.591 -148.896 117.772C-199.688 117.957 -250.744 119.023 -300.248 122.203C-312.926 123.016 -325.448 123.98 -337.814 125.094C-339.119 125.213 -338.534 125.794 -337.243 125.676L-337.243 125.674Z" fill="#0D3A3C"/>
<path d="M-340.752 132.173C-289.199 127.845 -235.422 125.917 -181.708 124.945C-129.327 123.998 -76.7006 124.117 -24.376 122.962C26.5864 121.845 75.6615 118.4 125.543 115.584C176.73 112.689 228.69 111.433 280.911 110.88C391.318 109.711 501.928 110.817 612.368 110.153C717.101 109.524 822.474 108.574 926.59 105.488C1031.19 102.389 1136.89 97.8733 1237.76 89.5817C1250.8 88.5099 1263.75 87.3611 1276.61 86.1352C1277.9 86.0117 1277.33 85.4293 1276.04 85.5548C1174.77 95.2019 1067.67 100.115 961.526 103.769C857.443 107.351 752.17 108.476 647.27 109.31C536.865 110.187 426.426 109.35 316.065 109.996C265.458 110.291 214.692 110.953 164.649 113.035C111.838 115.231 60.5148 119.517 7.53364 121.449C-44.3863 123.342 -97.0841 123.228 -149.37 123.867C-200.86 124.497 -252.433 125.712 -302.746 128.798C-315.735 129.595 -328.594 130.527 -341.322 131.593C-342.635 131.704 -342.043 132.287 -340.752 132.175L-340.752 132.173Z" fill="#0C3436"/>
<path d="M-344.274 138.676C-292.091 134.618 -238.142 132.622 -184.182 131.267C-133.075 129.984 -81.6564 129.36 -30.8398 127.343C21.6261 125.26 71.2599 120.547 122.044 116.596C172.29 112.686 223.746 110.501 275.791 109.303C386.205 106.762 497.598 107.648 608.354 108.148C714.006 108.621 820.155 110.047 925.695 108.751C1030.57 107.461 1137.25 103.961 1237.71 95.45C1250.62 94.3578 1263.41 93.1697 1276.09 91.8858C1277.37 91.7563 1276.81 91.1739 1275.52 91.3054C1174.87 101.465 1066.7 105.658 959.997 107.614C854.705 109.546 748.77 108.212 643.276 107.699C532.52 107.162 421.343 106.244 310.768 108.015C259.979 108.835 209.086 110.269 159.433 113.331C107.391 116.548 57.5027 121.915 5.3256 124.972C-46.1846 127.991 -99.1452 128.755 -151.563 129.902C-203.278 131.043 -255.067 132.446 -305.838 135.436C-318.947 136.206 -331.947 137.094 -344.837 138.099C-346.164 138.203 -345.608 138.785 -344.274 138.68L-344.274 138.676Z" fill="#0A2D2F"/>
<path d="M-347.794 145.178C-244.229 137.762 -136.344 137.689 -32.0753 131.457C19.2272 128.391 67.1172 122.697 116.286 117.805C165.455 112.912 216.163 109.754 267.968 107.858C378.319 103.827 490.795 104.465 601.904 106.133C709.536 107.749 817.041 111.537 924.808 112C1029.76 112.451 1137.36 110.074 1237.66 101.336C1250.44 100.223 1263.07 98.9958 1275.57 97.6539C1276.84 97.5183 1276.29 96.9359 1274.99 97.0735C1174.75 107.791 1065.3 111.165 958.175 111.432C851.049 111.7 744.224 107.994 637.375 106.111C526.985 104.168 415.643 103.17 305.557 106.081C254.479 107.432 203.489 109.679 154.253 113.699C102.951 117.891 54.3983 124.265 3.03269 128.398C-47.96 132.492 -101.055 134.2 -153.705 135.892C-205.638 137.561 -257.671 139.177 -308.894 142.076C-322.117 142.829 -335.265 143.67 -348.336 144.597C-348.598 144.62 -348.817 144.671 -348.948 144.738C-349.079 144.806 -349.111 144.885 -349.039 144.959C-348.967 145.034 -348.795 145.098 -348.559 145.138C-348.324 145.179 -348.042 145.193 -347.773 145.178L-347.794 145.178Z" fill="#092728"/>
<path d="M-351.313 151.68C-245.958 144.79 -135.975 143.721 -31.9377 135.301C17.7427 131.275 63.6584 124.769 110.889 119.051C159.547 113.159 210.181 109.026 262.485 106.418C372.198 100.946 485.343 101.29 596.352 104.124C704.874 106.894 812.224 112.897 920.863 115.199C1026.48 117.428 1136.01 116.294 1237.14 107.253C1249.96 106.107 1262.59 104.827 1275.05 103.413C1276.3 103.271 1275.77 102.689 1274.48 102.832C1173.98 114.189 1062.62 116.611 954.729 115.183C846.487 113.748 739.588 107.774 631.908 104.517C522.363 101.204 411.302 100.116 302.098 104.107C250.472 105.997 199.292 109.072 150.374 113.975C100.165 119.015 53.3202 126.239 3.31817 131.417C-97.1018 141.816 -206.792 143.009 -311.316 148.672C-324.893 149.407 -338.413 150.214 -351.876 151.092C-353.217 151.179 -352.654 151.759 -351.306 151.672L-351.313 151.68Z" fill="#082021"/>
<path d="M-354.854 158.181C-248.19 151.87 -137.053 149.569 -34.1386 139.161C15.5973 134.134 60.988 126.616 107.994 119.982C155.688 113.246 206.243 108.188 258.514 104.922C368.234 98.0532 482.42 98.1388 593.931 102.226C703.686 106.25 811.018 114.427 920.745 118.44C1026.7 122.317 1138.11 122.429 1239.91 112.868C1251.72 111.759 1263.34 110.507 1274.79 109.141C1276.06 108.991 1274.96 108.469 1273.71 108.619C1172.95 120.639 1059.66 121.948 951.375 118.841C840.483 115.659 732.284 107.359 622.116 102.736C513.432 98.177 402.722 97.083 294.451 102.32C243.617 104.777 193.565 108.634 146.192 114.296C97.0676 120.168 51.6961 128.132 3.05815 134.29C-96.5564 146.893 -207.732 149.772 -314.363 155.323C-328.074 156.036 -341.752 156.796 -355.396 157.601C-356.744 157.68 -356.181 158.261 -354.826 158.182L-354.854 158.181Z" fill="#07191A"/>
<path d="M-358.34 164.684C-251.379 159.019 -140.994 155.299 -40.1933 143.362C9.38945 137.492 54.0963 129.147 100.433 121.619C147.258 114.013 196.569 107.962 248.867 103.871C358.848 95.2717 474.734 94.8911 587.408 100.205C700.081 105.519 808.763 115.976 921.082 121.741C1026.11 127.118 1138.1 128.595 1239.83 118.747C1251.53 117.614 1263 116.326 1274.26 114.907C1275.52 114.749 1274.43 114.229 1273.18 114.385C1170.96 127.231 1054.46 127.189 944.973 122.285C833.13 117.284 725.272 106.909 614.086 100.954C504.699 95.0937 392.799 94.0795 284.061 100.8C233.64 103.915 184.422 108.628 138.406 115.129C90.7826 121.856 46.9349 130.415 -0.216277 137.386C-98.1131 151.839 -209.356 156.551 -317.384 161.971C-331.248 162.665 -345.09 163.375 -358.911 164.101C-360.266 164.174 -359.696 164.755 -358.34 164.684Z" fill="#061313"/>
<path d="M-361.857 171.184C-252.906 166.098 -141.631 160.869 -42.0888 147.033C9.10648 139.914 54.6447 130.269 102.529 121.646C149.581 113.182 199.806 106.367 253.419 101.708C362.515 92.2271 477.255 91.9344 589.096 98.6464C703.109 105.486 811.715 118.003 925.295 125.313C1027.77 131.906 1138.58 134.622 1238.87 124.699C1250.75 123.518 1262.39 122.168 1273.76 120.656C1275.01 120.492 1273.92 119.97 1272.68 120.134C1172.25 133.434 1056.77 132.313 949.521 126.176C836.288 119.695 728.577 107.362 616.353 99.774C561.553 96.0708 505.721 93.5427 449.389 93.2884C395.565 93.0476 341.927 94.7213 289.769 98.269C237.661 101.799 187.549 107.258 140.756 114.501C90.7901 122.265 45.695 132.156 -3.23366 140.38C-99.7563 156.597 -210.731 163.331 -320.809 168.638C-334.672 169.305 -348.535 169.96 -362.399 170.602C-363.754 170.665 -363.183 171.247 -361.828 171.184L-361.857 171.184Z" fill="#050C0C"/>
</g>
<g filter="url(#filter0_f_1149_15627)">
<path d="M-277.177 14.1043C-220.966 3.49306 -146.953 3.35713 -84.1319 9.85128C-19.4691 16.5403 33.0698 30.1118 75.7383 44.7985C123.065 61.0856 159.929 79.3939 203.265 96.4621C242.567 111.938 288.291 126.302 343.919 137.434C399.948 148.649 465.516 156.219 534.617 157.535C601.632 158.808 666.853 153.75 720.328 142.655C826.769 120.587 870.847 84.2147 929.351 52.6653C960.77 35.7255 998.209 19.3879 1051.17 6.98678C1103.56 -5.22388 1166.75 -13.3905 1234.46 -16.7004C1251.36 -17.5162 1268.45 -18.0191 1285.61 -18.2055C1286.99 -18.2224 1287 -18.8172 1285.61 -18.8002C1219.44 -18.026 1155.21 -12.667 1098.82 -3.21444C1041.11 6.45771 995.982 20.1889 960.64 35.9709C890.057 67.4857 854.446 105.046 759.62 132.212C711.658 145.956 650.32 155.256 580.494 156.864C507.75 158.531 434.896 152.62 372.799 142.056C312.614 131.832 262.351 117.608 220.383 102.008C174.709 85.029 137.732 66.4269 91.6922 49.5137C51.6261 34.8085 3.90558 21.0735 -56.0092 12.6407C-111.297 4.8705 -178.476 2.15571 -237.377 7.86044C-251.869 9.26745 -265.616 11.1925 -278.271 13.587C-279.405 13.7991 -278.332 14.3183 -277.191 14.1042L-277.177 14.1043Z" fill="#69F8FF"/>
<path d="M-277.109 15.1045C-277.799 15.2151 -278.533 15.1409 -279.019 14.9065C-279.147 14.8452 -279.364 14.7234 -279.531 14.4981C-279.623 14.3752 -279.718 14.1958 -279.746 13.9652C-279.775 13.7241 -279.721 13.4968 -279.618 13.3092C-279.438 12.979 -279.143 12.8278 -279 12.7646C-278.826 12.6877 -278.637 12.6385 -278.454 12.6042C-265.766 10.2036 -251.99 8.27465 -237.472 6.86513L-237.472 6.86511C-178.481 1.1517 -111.222 3.87094 -55.8682 11.6504L-55.868 11.6504C4.12648 20.0945 51.9158 33.849 92.0383 48.5749L92.0385 48.575C115.087 57.0419 135.864 65.9307 156.571 74.8171L157.831 75.3581C178.121 84.0661 198.386 92.7632 220.733 101.071C262.642 116.649 312.845 130.857 372.968 141.07L372.854 141.737L372.968 141.07C435.004 151.624 507.794 157.53 580.473 155.864C650.229 154.258 711.479 144.967 759.346 131.251C806.662 117.696 839.197 101.551 868.73 84.8519C876.366 80.5342 883.809 76.1744 891.26 71.8101C912.612 59.303 934.029 46.7583 960.234 35.058C995.667 19.2351 1040.88 5.48271 1098.66 -4.20066C1155.11 -13.6629 1219.39 -19.0255 1285.6 -19.8002M-277.109 15.1045L1285.6 -19.8002M-277.109 15.1045L-277.087 15.1046L-276.993 15.0869C-220.908 4.49943 -146.999 4.35794 -84.2366 10.846C-19.659 17.5261 32.8052 31.0789 75.4112 45.7441L75.7011 44.9059L75.4113 45.7441C104.656 55.8083 129.849 66.6229 155.085 77.4561C170.684 84.1521 186.299 90.8553 202.897 97.3926L203.251 96.4982L202.897 97.3926C242.251 112.889 288.032 127.271 343.721 138.415C399.809 149.641 465.437 157.218 534.596 158.535C601.666 159.809 666.964 154.748 720.53 143.634C805.106 126.099 850.447 99.5161 894.729 73.5537C906.274 66.7849 917.747 60.0583 929.824 53.5453C961.177 36.6416 998.532 20.3388 1051.39 7.96065M-277.109 15.1045L1051.39 7.96065M1285.6 -19.8002C1286.01 -19.8051 1286.38 -19.768 1286.69 -19.6716C1286.84 -19.6248 1287.03 -19.5461 1287.21 -19.4043C1287.39 -19.2646 1287.65 -18.9659 1287.65 -18.506C1287.64 -18.0544 1287.38 -17.7642 1287.21 -17.6303C1287.04 -17.4908 1286.85 -17.4097 1286.7 -17.3597C1286.4 -17.2571 1286.02 -17.2105 1285.62 -17.2056L1285.62 -17.2055C1268.47 -17.0193 1251.39 -16.5168 1234.51 -15.7016C1166.84 -12.394 1103.71 -4.23338 1051.39 7.96065M1285.6 -19.8002L1051.39 7.96065" stroke="#2152FE" stroke-width="2"/>
</g>
<g filter="url(#filter1_d_1149_15627)">
<path d="M-277.177 14.1043C-220.966 3.49306 -146.953 3.35713 -84.1319 9.85128C-19.4691 16.5403 33.0698 30.1118 75.7383 44.7985C123.065 61.0856 159.929 79.3939 203.265 96.4621C242.567 111.938 288.291 126.302 343.919 137.434C399.948 148.649 465.516 156.219 534.617 157.535C601.632 158.808 666.853 153.75 720.328 142.655C826.769 120.587 870.847 84.2147 929.351 52.6653C960.77 35.7255 998.209 19.3879 1051.17 6.98678C1103.56 -5.22388 1166.75 -13.3905 1234.46 -16.7004C1251.36 -17.5162 1268.45 -18.0191 1285.61 -18.2055C1286.99 -18.2224 1287 -18.8172 1285.61 -18.8002C1219.44 -18.026 1155.21 -12.667 1098.82 -3.21444C1041.11 6.45771 995.982 20.1889 960.64 35.9709C890.057 67.4857 854.446 105.046 759.62 132.212C711.658 145.956 650.32 155.256 580.494 156.864C507.75 158.531 434.896 152.62 372.799 142.056C312.614 131.832 262.351 117.608 220.383 102.008C174.709 85.029 137.732 66.4269 91.6922 49.5137C51.6261 34.8085 3.90558 21.0735 -56.0092 12.6407C-111.297 4.8705 -178.476 2.15571 -237.377 7.86044C-251.869 9.26745 -265.616 11.1925 -278.271 13.587C-279.405 13.7991 -278.332 14.3183 -277.191 14.1042L-277.177 14.1043Z" fill="#69B7FF"/>
</g>
</g>
</g>
<defs>
<filter id="filter0_f_1149_15627" x="-288.854" y="-28.9008" width="1585.6" height="196.728" filterUnits="userSpaceOnUse" color-interpolation-filters="sRGB">
<feFlood flood-opacity="0" result="BackgroundImageFix"/>
<feBlend mode="normal" in="SourceGraphic" in2="BackgroundImageFix" result="shape"/>
<feGaussianBlur stdDeviation="4.05" result="effect1_foregroundBlur_1149_15627"/>
</filter>
<filter id="filter1_d_1149_15627" x="-282.753" y="-18.8008" width="1573.4" height="184.528" filterUnits="userSpaceOnUse" color-interpolation-filters="sRGB">
<feFlood flood-opacity="0" result="BackgroundImageFix"/>
<feColorMatrix in="SourceAlpha" type="matrix" values="0 0 0 0 0 0 0 0 0 0 0 0 0 0 0 0 0 0 127 0" result="hardAlpha"/>
<feOffset dy="4"/>
<feGaussianBlur stdDeviation="2"/>
<feComposite in2="hardAlpha" operator="out"/>
<feColorMatrix type="matrix" values="0 0 0 0 0 0 0 0 0 0 0 0 0 0 0 0 0 0 0.25 0"/>
<feBlend mode="normal" in2="BackgroundImageFix" result="effect1_dropShadow_1149_15627"/>
<feBlend mode="normal" in="SourceGraphic" in2="effect1_dropShadow_1149_15627" result="shape"/>
</filter>
<linearGradient id="paint0_linear_1149_15627" x1="19.5395" y1="111.267" x2="888.709" y2="64.121" gradientUnits="userSpaceOnUse">
<stop stop-color="#D9D9D9" stop-opacity="0"/>
<stop offset="0.463511" stop-color="#737373"/>
<stop offset="0.955" stop-color="#737373" stop-opacity="0"/>
</linearGradient>
<clipPath id="clip0_1149_15627">
<rect width="1648.83" height="193.315" fill="white" transform="matrix(0.999994 0.00352089 -0.0054132 0.999985 -362.164 -24.6069)"/>
</clipPath>
</defs>
</svg>
