<svg width="892" height="221" viewBox="0 0 892 221" fill="none" xmlns="http://www.w3.org/2000/svg">
<g opacity="0.4">
<mask id="mask0_596_10092" style="mask-type:alpha" maskUnits="userSpaceOnUse" x="0" y="0" width="892" height="221">
<rect x="0.34375" width="891" height="221" fill="url(#paint0_linear_596_10092)"/>
</mask>
<g mask="url(#mask0_596_10092)">
<g opacity="0.79" clip-path="url(#clip0_596_10092)">
<path d="M-276.833 14.4722C-220.622 3.76027 -146.61 3.62305 -83.788 10.1788C-19.1251 16.9313 33.4138 30.6316 76.0823 45.4576C123.409 61.8993 160.273 80.3813 203.609 97.6114C242.911 113.234 288.636 127.735 344.263 138.972C400.292 150.293 465.86 157.936 534.961 159.264C601.976 160.549 667.197 155.443 720.673 144.243C827.114 121.965 871.191 85.2478 929.695 53.3991C961.115 36.2986 998.553 19.8059 1051.51 7.28714C1103.9 -5.03938 1167.1 -13.2835 1234.81 -16.6248C1251.7 -17.4484 1268.79 -17.956 1285.96 -18.1441C1287.33 -18.1613 1287.34 -18.7617 1285.96 -18.7446C1219.78 -17.963 1155.56 -12.5531 1099.17 -3.01088C1041.46 6.75305 996.326 20.6146 960.984 36.5463C890.401 68.3601 854.791 106.276 759.964 133.701C712.002 147.575 650.665 156.963 580.838 158.586C508.094 160.269 435.24 154.302 373.143 143.638C312.958 133.317 262.695 118.958 220.727 103.21C175.053 86.0699 138.076 67.2912 92.0362 50.2176C51.9701 35.3728 4.24958 21.5075 -55.6652 12.9947C-110.953 5.15078 -178.132 2.41023 -237.033 8.1691C-251.526 9.58946 -265.272 11.5327 -277.927 13.9499C-279.061 14.1641 -277.988 14.6882 -276.847 14.4721L-276.833 14.4722Z" fill="#1FABB2"/>
<path d="M-280.355 20.973C-225.86 10.9054 -155.337 10.3695 -94.0162 16.0193C-30.3737 21.8835 22.7378 34.417 66.3933 48.3259C114.579 63.6759 152.738 81.1418 196.496 97.4287C235.76 112.037 280.587 125.547 334.203 136.125C388.629 146.868 451.331 154.28 517.655 156.211C584.501 158.158 651.265 154.166 707.151 143.835C818.121 123.321 866.856 87.0163 929.191 55.8817C962.465 39.2622 1001.91 23.433 1055.95 11.5826C1107.71 0.232418 1169.76 -7.44862 1234.73 -10.7402C1251.48 -11.5837 1268.41 -12.1331 1285.43 -12.3853C1286.81 -12.4064 1286.82 -13.0068 1285.44 -12.9857C1221.22 -11.992 1158.87 -6.86696 1103.23 1.98976C1045.78 11.1462 999.502 24.173 962.637 39.4109C887.498 70.47 847.916 108.378 747.004 134.312C696.645 147.252 633.903 155.219 564.748 156.034C493.227 156.877 422.459 150.803 361.386 140.407C303.421 130.538 254.351 117.094 212.478 102.263C167.192 86.2267 129.32 68.6698 82.9865 52.86C42.0696 38.9188 -6.3091 26.138 -65.4115 18.5347C-120.022 11.5037 -185.126 9.36498 -242.091 14.9706C-255.973 16.3411 -269.185 18.1814 -281.434 20.4508C-282.575 20.6629 -281.503 21.187 -280.355 20.973Z" fill="#1EA4AB"/>
<path d="M-283.876 27.4725C-230.338 17.8859 -162.029 17.1259 -101.708 22.1577C-38.5858 27.4197 15.0535 39.1225 59.8597 52.353C108.116 66.5984 147.249 82.939 191.414 98.1266C232.48 112.244 278.915 125.191 333.647 135.164C442.801 155.056 587.347 161.658 701.216 141.874C811.16 122.775 863.448 88.3286 928.199 58.6456C963.463 42.4834 1004.92 27.2639 1060.09 16.0299C1112.04 5.44894 1172.94 -1.71184 1236.36 -4.95888C1252.41 -5.77484 1268.62 -6.33664 1284.91 -6.64161C1286.28 -6.66876 1286.29 -7.26915 1284.92 -7.24202C1221.95 -6.03246 1160.79 -1.07675 1105.53 7.29311C1048.79 15.8977 1001.9 28.0998 963.8 42.5787C886.534 71.937 843.011 108.178 742.473 132.568C691.4 144.958 628.826 152.453 560.559 153.253C490.371 154.078 420.612 148.54 359.499 138.856C302.147 129.768 252.677 117.284 209.86 103.354C163.494 88.2724 124.255 71.6053 77.0846 56.7092C35.2247 43.5072 -13.5312 31.5416 -72.0633 24.5287C-126.82 17.9676 -191.345 16.1972 -247.686 21.817C-260.788 23.1291 -273.303 24.851 -284.992 26.9501C-286.147 27.1582 -285.075 27.6804 -283.912 27.4724L-283.876 27.4725Z" fill="#1D9EA4"/>
<path d="M-287.387 33.979C-234.18 24.7615 -167.183 23.8868 -107.354 28.4946C-45.8852 33.2282 7.45832 43.9393 52.7283 56.2508C101.177 69.4322 141.398 84.6558 186.056 98.7804C228.281 112.124 275.323 124.286 329.885 133.586C439.54 152.281 581.451 158.417 695.256 139.924C804.167 122.226 860.03 89.6358 927.232 61.4325C964.033 45.9963 1006.74 31.6238 1061.81 21.0399C1113.59 11.0948 1173.18 4.31366 1235.02 1.00697C1251.35 0.13687 1267.84 -0.488639 1284.42 -0.866882C1285.79 -0.898066 1285.8 -1.50043 1284.43 -1.4673C1222.59 -0.0450269 1162.49 4.76429 1107.57 12.6865C1050.96 20.8773 1003.15 32.4377 963.63 46.3391C884.767 74.0786 836.851 108.609 736.136 131.295C684.53 142.92 622.504 149.777 555.707 150.514C486.602 151.269 417.737 146.185 356.563 137.141C299.444 128.698 249.374 117.014 205.371 103.843C158.232 89.7332 117.59 74.0437 69.6044 60.1455C27.252 47.8744 -21.373 36.9059 -78.4678 30.5726C-132.561 24.5763 -195.28 23.0884 -250.43 28.3963C-263.752 29.6861 -276.504 31.386 -288.453 33.4648C-289.615 33.6609 -288.542 34.191 -287.366 33.9871L-287.387 33.979Z" fill="#1C979D"/>
<path d="M-290.901 40.4801C-238.033 31.6256 -172.318 30.6403 -113.011 34.8319C-52.5214 39.1098 0.898183 49.0105 46.9536 60.5643C96.3811 72.9586 138.371 87.3959 184.682 100.646C227.866 113.008 275.551 124.135 329.659 132.561C439.352 149.645 577.41 155.009 689.931 137.861C797.38 121.483 856.745 90.8819 926.354 64.2163C964.176 49.7304 1007.45 36.3447 1061.46 26.4515C1114.21 16.786 1174.21 10.1984 1236.26 6.81647C1252.04 5.9579 1267.9 5.32779 1283.88 4.89024C1285.25 4.85306 1285.26 4.25269 1283.89 4.28983C1222.76 5.93607 1163.34 10.6619 1108.48 18.2387C1052.37 26.0209 1004.03 36.9149 963.278 50.1455C882.746 76.278 830.337 109.127 729.208 130.101C677.808 140.76 617.384 146.961 552.974 147.737C485.16 148.553 417.309 144.011 356.131 135.742C299.094 128.03 248.296 117.227 202.961 104.908C154.663 91.7809 112.403 77.0384 63.5882 64.0518C20.0922 52.4771 -29.139 42.2551 -86.0148 36.517C-139.853 31.0819 -201.399 29.9645 -255.559 35.1979C-268.268 36.4297 -280.476 38.0248 -291.988 39.9579C-293.165 40.1538 -292.085 40.678 -290.901 40.4801Z" fill="#1B9096"/>
<path d="M-294.413 46.9811C-242.516 38.5895 -178.943 37.4265 -120.809 41.0436C-60.4453 44.7966 -6.26202 53.9815 41.1375 64.8836C90.8711 76.3183 134.25 89.6819 181.471 101.87C225.813 113.322 274.198 123.557 328.06 131.246C437.66 146.892 572.237 151.689 683.934 135.895C791.118 120.739 854.137 91.7522 927.058 66.4814C966.245 52.8949 1010.53 40.5055 1064.05 31.3431C1116.43 22.3668 1175.01 16.1685 1235.36 12.7564C1251.26 11.8575 1267.27 11.1579 1283.41 10.6576C1284.76 10.6143 1284.79 10.014 1283.41 10.0571C1223.58 11.911 1165.35 16.4829 1111.01 23.5924C1055.16 30.9392 1006.09 41.1441 963.882 53.6791C881.516 78.1539 824.737 109.2 723.724 128.591C671.474 138.613 611.167 144.318 547.425 145.001C481.095 145.711 414.683 141.603 353.925 134.051C297.844 127.081 246.79 117.259 200.755 105.94C151.311 93.7914 107.218 80.053 57.5089 67.984C12.8619 57.1437 -37.0112 47.6338 -93.6178 42.5092C-146.57 37.7077 -205.995 36.866 -258.821 41.8259C-271.591 43.0273 -283.885 44.5826 -295.522 46.4688C-295.757 46.5096 -295.926 46.5744 -295.992 46.6497C-296.059 46.725 -296.018 46.8048 -295.878 46.8725C-295.738 46.9401 -295.51 46.9903 -295.242 47.0124C-294.975 47.0345 -294.688 47.0269 -294.442 46.991L-294.413 46.9811Z" fill="#1A8A8F"/>
<path d="M-297.938 53.484C-246.401 45.4514 -184.111 44.1937 -126.569 47.4104C-68.1104 50.6743 -14.7963 58.8475 32.8596 68.7157C84.3538 79.3781 130.131 91.9716 179.507 103.347C224.83 113.789 273.672 123.053 327 129.96C436.608 144.145 567.725 148.382 678.612 133.835C784.399 119.957 850.985 92.9667 926.328 69.3075C967.396 56.4083 1013.16 44.7786 1067.09 36.1841C1120.37 27.6813 1179.1 21.7997 1239.36 18.4033C1253.86 17.5863 1268.45 16.9203 1283.15 16.4055C1284.51 16.3563 1283.93 15.7758 1282.58 15.823C1222.8 17.9542 1164.16 22.5011 1109.45 29.4618C1054.58 36.4438 1005.56 46.0045 962.571 57.7601C878.622 80.7202 816.999 109.922 715.308 127.573C663.245 136.631 603.431 141.691 541.835 142.249C477.642 142.86 413.314 139.241 353.604 132.534C296.775 126.146 244.312 117.009 196.337 106.389C146.594 95.3785 101.275 82.9007 51.4097 71.9299C5.53289 61.8358 -44.9678 53.0722 -101.305 48.5149C-153.888 44.2631 -212.06 43.7421 -263.982 48.6192C-276.125 49.7622 -287.853 51.2158 -299.018 52.9618C-299.253 53.0025 -299.422 53.0673 -299.489 53.1426C-299.555 53.2179 -299.514 53.2978 -299.374 53.3654C-299.234 53.4331 -299.006 53.4832 -298.739 53.5054C-298.471 53.5275 -298.184 53.5198 -297.938 53.484Z" fill="#188388"/>
<path d="M-301.46 59.9837C-249.91 52.2553 -188.336 50.9391 -131.001 53.8468C-73.2429 56.78 -19.9394 64.2746 28.5521 73.3933C79.6147 82.9994 126.353 94.2574 176.065 104.399C222.454 113.869 271.681 122.223 324.654 128.452C433.996 141.307 561.933 145.129 672.182 131.921C778.006 119.242 848.547 93.8943 927.395 71.6966C969.554 59.828 1015.69 49.1943 1068.73 41.2871C1121.78 33.3799 1179.49 27.779 1238.49 24.3221C1253.13 23.4641 1267.87 22.742 1282.7 22.1555C1284.06 22.1003 1283.48 21.5199 1282.13 21.5731C1164.35 26.2841 1052.29 39.2132 963.359 61.303C877.678 82.5897 811.434 109.844 710.059 125.973C658.001 134.264 599.393 138.895 539.231 139.47C476.027 140.104 412.606 136.932 353.015 130.91C297.465 125.297 245.398 117.257 196.922 107.828C145.739 97.8728 98.4359 86.4627 47.6556 76.3632C0.835383 67.0584 -49.7264 58.9871 -105.414 54.8363C-157.811 50.9295 -215.16 50.5255 -266.765 55.1935C-279.133 56.3178 -291.105 57.7488 -302.539 59.4695C-303.752 59.6513 -302.672 60.1755 -301.46 59.9917L-301.46 59.9837Z" fill="#177D82"/>
<path d="M-304.98 66.489C-254.759 59.2622 -195.802 57.7846 -140.062 60.0862C-82.587 62.462 -28.7777 69.1799 20.9083 77.4842C72.3849 86.0871 120.563 96.1354 171.063 105.167C218.067 113.574 267.205 121.038 319.343 126.617C430.304 138.491 557.597 142.074 669.003 129.617C772.032 118.101 845.586 95.1538 925.871 74.8306C969.761 63.7226 1017.11 53.8178 1070.32 46.4136C1123.53 39.0093 1180.66 33.6885 1238.87 30.1707C1253.22 29.3051 1267.63 28.5557 1282.12 27.9228C1283.48 27.8616 1282.91 27.2811 1281.55 27.3403C1166.14 32.472 1055.25 44.4126 964.092 64.8813C876.684 84.5087 805.806 109.751 704.697 124.388C650.752 132.202 591.651 136.329 530.656 136.757C468.908 137.184 407.056 134.286 348.286 128.873C293.643 123.834 241.822 116.663 192.739 108.264C140.533 99.3306 91.3375 89.1066 39.5483 79.9922C-8.2087 71.5866 -59.1549 64.3386 -114.379 60.8319C-165.763 57.5631 -221.034 57.4507 -271.233 61.9336C-283.236 63.0071 -294.887 64.3581 -306.067 65.9727C-307.294 66.1505 -306.207 66.6727 -304.987 66.4949L-304.98 66.489Z" fill="#16767B"/>
<path d="M-308.49 72.9871C-204.522 58.6223 -83.1783 67.4255 14.8645 81.8939C66.5757 89.525 116.087 98.295 167.302 106.163C215.731 113.598 265.684 120.252 318.034 125.193C428.378 135.613 551.988 138.792 662.463 127.698C765.191 117.384 842.9 96.2951 926.073 77.5453C971.177 67.3803 1019.17 58.3584 1071.91 51.5269C1125.28 44.6135 1181.83 39.5768 1239.31 36.0085C1253.34 35.1377 1267.44 34.3585 1281.62 33.6711C1282.98 33.6039 1282.41 33.0234 1281.06 33.0907C1166.96 38.6894 1056.65 49.8055 962.903 68.876C874.73 86.8135 799.571 109.697 699.416 122.788C588.544 137.281 461.637 136.553 345.022 126.95C290.727 122.478 238.701 116.105 188.659 108.702C136.203 100.94 85.8604 92.1253 33.9434 84.0972C-14.1128 76.6653 -64.5113 70.2297 -118.469 67.1439C-170.055 64.1946 -225.026 64.2294 -275.239 68.6121C-287.045 69.6446 -298.535 70.9327 -309.606 72.4648C-310.84 72.6345 -309.753 73.1568 -308.519 72.987L-308.49 72.9871Z" fill="#156F74"/>
<path d="M-312.003 79.4904C-208.97 65.8628 -90.1732 73.6102 9.37694 86.3988C110.224 99.3542 207.266 114.62 314.085 123.507C424.493 132.686 545.503 135.624 655.906 125.777C758.814 116.6 840.865 97.3198 927.328 80.1528C972.949 71.0944 1020.82 63.0427 1072.34 56.8353C1125.73 50.4064 1181.66 45.5997 1238.36 41.9505C1252.54 41.0362 1266.78 40.1988 1281.09 39.4385C1282.44 39.3652 1281.87 38.7848 1280.52 38.858C1168.05 44.8828 1058.64 55.2095 962.581 72.6907C871.742 89.2178 791.237 110.217 689.478 121.735C579.139 134.226 456.363 133.354 341.727 125.031C230.76 116.973 129.753 101.745 26.7528 88.0197C-68.0237 75.3841 -174.929 66.5041 -278.451 75.2306C-290.322 76.2345 -301.9 77.4838 -313.089 78.9682C-314.33 79.1319 -313.244 79.6541 -312.003 79.4904Z" fill="#14696D"/>
<path d="M-315.525 85.9904C-213.156 73.0629 -96.8419 79.8728 4.13695 90.9293C105.811 102.066 206.381 114.438 312.39 121.972C422.562 129.797 540.699 132.39 650.587 123.717C752.026 115.709 837.412 98.7344 925.55 83.3786C973.26 75.0682 1022.69 67.6425 1075.1 61.8586C1128.18 55.999 1183.21 51.4692 1238.8 47.7821C1252.66 46.8626 1266.58 45.9975 1280.54 45.1865C1281.89 45.1072 1281.33 44.5268 1279.97 44.606C1169.03 51.0866 1060.52 60.6579 962.22 76.5C870.379 91.3063 786.067 109.84 685.268 119.969C574.32 131.121 453.572 130.319 338.987 123.133C231.34 116.384 128.373 104.336 26.3148 92.7694C-24.4387 87.017 -76.1415 81.8197 -130.441 79.5873C-180.884 77.5106 -233.592 77.8917 -282.434 81.9151C-294.114 82.881 -305.534 84.0709 -316.612 85.4762C-317.861 85.6339 -316.774 86.1561 -315.525 85.9984L-315.525 85.9904Z" fill="#136266"/>
<path d="M-319.03 92.4961C-216.606 80.1751 -102.159 86.2619 0.570667 95.6154C51.9249 100.291 103.33 104.823 155.218 109C206.295 113.113 257.394 117.229 309.374 120.322C418.951 126.844 534.178 129.19 643.435 121.801C745.313 114.912 834.961 99.9521 926.173 86.2364C975.147 78.8711 1025.33 72.2366 1077.75 66.9611C1130.71 61.6234 1185.05 57.3354 1239.77 53.5991C1253.16 52.6847 1266.59 51.8031 1280.07 50.9544C1281.42 50.8691 1280.85 50.2887 1279.5 50.3739C1170.97 57.2413 1064 65.9916 964.517 79.9701C870.067 93.244 780.906 109.631 678.989 118.441C568.064 128.032 450.033 127.234 336.252 121.226C284.25 118.483 233.127 114.635 182.25 110.553C128.55 106.244 74.9572 101.866 21.8909 96.9541C-28.166 92.321 -78.5326 87.943 -130.891 86.0237C-182.167 84.1443 -235.463 84.5833 -285.2 88.5034C-297.115 89.4472 -308.786 90.6092 -320.138 91.9818C-321.401 92.1354 -320.314 92.6556 -319.058 92.506L-319.03 92.4961Z" fill="#125B5F"/>
<path d="M-322.566 98.9923C-220.906 87.3731 -108.956 92.5744 -5.49194 100.045C46.2545 103.78 98.255 106.925 150.586 109.907C201.986 112.833 253.168 116.087 304.864 118.583C414.641 123.882 528.134 126.027 637.544 119.765C738.19 114.01 830.563 101.482 923.127 89.6161C973.343 83.1779 1024.27 77.2426 1076.86 72.392C1130.13 67.4737 1184.36 63.3674 1238.78 59.5239C1252.34 58.5648 1265.93 57.623 1279.52 56.6987C1279.79 56.6755 1280.01 56.6251 1280.14 56.5578C1280.27 56.4904 1280.3 56.4114 1280.23 56.3369C1280.16 56.2624 1279.98 56.1982 1279.75 56.1575C1279.51 56.1168 1279.23 56.1028 1278.96 56.1183C1171.35 63.4652 1064.58 71.6018 962.966 83.9656C867.22 95.6178 774.424 109.466 672.665 116.866C561.461 124.953 445.409 124.12 332.066 119.222C280.462 116.993 229.465 113.9 178.382 110.898C123.829 107.69 69.1105 104.806 15.0781 100.911C-35.271 97.2835 -85.6343 93.644 -137.45 92.209C-188.227 90.8016 -240.556 91.4182 -289.705 95.2203C-301.244 96.1166 -312.577 97.2017 -323.645 98.4701C-324.915 98.6157 -323.828 99.1379 -322.566 98.9923Z" fill="#115558"/>
<path d="M-326.332 105.523C-224.475 94.5013 -114.328 98.9897 -9.62095 104.602C41.7795 107.356 93.3933 109.075 145.294 110.82C196.184 112.532 246.841 114.878 297.679 116.766C407.922 120.864 520.312 122.885 630.216 117.8C731.76 113.099 828.015 102.727 923.559 92.5495C974.25 87.1518 1025.27 82.0394 1077.3 77.6971C1130.41 73.2666 1184.11 69.3746 1237.76 65.4684C1251.5 64.4671 1265.25 63.4633 1279 62.4567C1279.26 62.4346 1279.49 62.3842 1279.62 62.3162C1279.76 62.2481 1279.79 62.1679 1279.72 62.0923C1279.64 62.0168 1279.47 61.952 1279.22 61.9117C1278.98 61.8713 1278.7 61.8586 1278.42 61.8763C1170.85 69.7718 1063.2 77.3828 958.86 88.1918C863.461 98.08 768.988 109.104 669.014 115.119C558.743 121.754 445.557 121.084 333.642 117.426C282.035 115.737 230.676 113.401 179.163 111.429C124.634 109.342 69.7199 108.064 15.4663 105.313C-35.8059 102.707 -86.7458 99.6422 -138.757 98.5286C-189.177 97.4488 -240.703 98.1102 -289.664 101.607C-302.311 102.511 -314.746 103.625 -326.903 104.943C-328.172 105.08 -327.624 105.663 -326.332 105.523Z" fill="#104E51"/>
<path d="M-329.854 112.025C-229.011 101.718 -121.203 105.321 -16.7512 109.007C36.1595 110.874 88.9563 111.236 142.132 111.815C193.566 112.376 244.808 113.884 296.087 115.183C406.322 117.97 517.43 119.694 627.236 115.649C728.337 111.918 826.766 103.913 923.87 95.5745C975.245 91.1538 1026.66 86.8194 1078.62 82.9492C1131.91 78.9797 1185.48 75.2793 1238.73 71.2816C1252.01 70.2841 1265.27 69.2638 1278.5 68.2207C1279.82 68.1173 1279.26 67.5349 1277.93 67.6402C1172.13 75.9564 1065.04 82.8809 959.899 91.8458C862.932 100.107 765.755 108.664 665.473 113.415C554.879 118.664 442.776 118.014 331.041 115.429C279.575 114.245 228.197 112.638 176.672 111.706C122.309 110.712 67.7736 110.987 13.5209 109.397C-39.0115 107.861 -91.1305 105.414 -143.99 104.734C-194.291 104.089 -245.366 104.922 -294.183 108.333C-306.458 109.191 -318.556 110.229 -330.424 111.445C-331.708 111.576 -331.145 112.159 -329.854 112.025Z" fill="#0F484A"/>
<path d="M-333.371 118.529C-283.364 113.721 -230.183 111.879 -177.311 111.566C-124.976 111.256 -73.0033 112.844 -20.7896 113.67C31.424 114.496 83.4693 113.306 135.576 112.779C187.072 112.257 238.513 112.792 290.004 113.488C402.21 115.005 514.559 116.557 626.439 113.482C727.026 110.712 826.711 105.1 924.823 98.5978C976.844 95.1501 1028.74 91.5619 1080.79 88.1443C1133.6 84.6794 1186.42 81.2046 1238.68 77.1593C1251.82 76.1386 1264.92 75.0818 1277.98 73.9887C1279.3 73.8793 1278.7 73.2968 1277.41 73.4083C1173.83 82.1085 1067.55 88.3335 962.433 95.4551C863.524 102.157 763.672 108.254 662.457 111.763C550.509 115.634 437.99 114.918 325.34 113.377C273.728 112.667 222.002 111.809 170.328 111.945C116.696 112.093 63.2087 113.566 9.55782 113.375C-42.0141 113.192 -93.3615 111.242 -144.94 110.961C-195.838 110.682 -247.272 111.616 -296.784 114.92C-309.353 115.759 -321.744 116.766 -333.956 117.943C-335.247 118.066 -334.677 118.648 -333.386 118.523L-333.371 118.529Z" fill="#0E4143"/>
<path d="M-336.899 125.033C-235.009 115.859 -128.385 118.237 -22.7789 118.002C28.5437 117.886 78.623 115.671 129.359 113.907C180.935 112.115 232.868 111.78 284.863 111.858C395.851 112.021 506.796 113.366 617.63 111.544C720.322 109.845 822.544 106.585 923.843 101.781C1029.25 96.7876 1135.38 91.2526 1238.15 83.0659C1251.32 82.0186 1264.42 80.9103 1277.45 79.7411C1278.76 79.6237 1278.17 79.0432 1276.89 79.1607C1174.04 88.3659 1066.92 93.9654 960.675 99.3598C858.626 104.523 755.612 108.176 652.061 110.303C541.526 112.594 430.893 111.799 320.079 111.359C268.873 111.155 217.502 111.057 166.475 112.214C113.046 113.435 60.4096 116.492 6.78275 117.184C-44.9157 117.865 -96.7919 116.95 -148.552 117.131C-199.345 117.316 -250.4 118.382 -299.904 121.562C-312.583 122.375 -325.105 123.339 -337.47 124.453C-338.775 124.572 -338.19 125.153 -336.899 125.035L-336.899 125.033Z" fill="#0D3A3C"/>
<path d="M-340.408 131.532C-288.855 127.204 -235.078 125.276 -181.364 124.304C-128.983 123.357 -76.3568 123.476 -24.0321 122.321C26.9303 121.204 76.0053 117.759 125.887 114.943C177.074 112.048 229.034 110.792 281.255 110.239C391.662 109.07 502.271 110.176 612.712 109.512C717.445 108.883 822.818 107.933 926.934 104.847C1031.54 101.748 1137.24 97.2322 1238.11 88.9406C1251.14 87.8688 1264.09 86.72 1276.95 85.4941C1278.24 85.3706 1277.67 84.7881 1276.38 84.9137C1175.11 94.5608 1068.02 99.4739 961.87 103.127C857.787 106.71 752.514 107.835 647.614 108.669C537.209 109.546 426.77 108.709 316.408 109.355C265.802 109.65 215.035 110.312 164.993 112.394C112.182 114.59 60.8587 118.876 7.87751 120.808C-44.0425 122.7 -96.7402 122.587 -149.026 123.226C-200.516 123.856 -252.089 125.071 -302.402 128.157C-315.392 128.954 -328.25 129.885 -340.978 130.952C-342.291 131.063 -341.699 131.646 -340.408 131.534L-340.408 131.532Z" fill="#0C3436"/>
<path d="M-343.93 138.035C-291.747 133.977 -237.798 131.981 -183.838 130.626C-132.731 129.343 -81.3125 128.719 -30.4959 126.702C21.9699 124.619 71.6038 119.906 122.388 115.955C172.634 112.045 224.09 109.86 276.135 108.662C386.549 106.121 497.941 107.007 608.698 107.507C714.35 107.98 820.499 109.406 926.039 108.11C1030.91 106.82 1137.6 103.32 1238.05 94.8089C1250.96 93.7167 1263.75 92.5286 1276.43 91.2447C1277.71 91.1152 1277.15 90.5328 1275.86 90.6643C1175.22 100.824 1067.04 105.017 960.341 106.973C855.049 108.905 749.114 107.571 643.62 107.058C532.864 106.521 421.687 105.603 311.111 107.373C260.323 108.194 209.43 109.628 159.777 112.69C107.735 115.907 57.8466 121.274 5.66946 124.331C-45.8408 127.35 -98.8013 128.114 -151.219 129.261C-202.934 130.402 -254.723 131.805 -305.494 134.795C-318.603 135.565 -331.603 136.453 -344.493 137.458C-345.82 137.562 -345.264 138.144 -343.93 138.039L-343.93 138.035Z" fill="#0A2D2F"/>
<path d="M-347.451 144.537C-243.885 137.121 -136 137.048 -31.7315 130.816C19.5711 127.75 67.461 122.056 116.63 117.163C165.799 112.271 216.507 109.113 268.312 107.217C378.663 103.186 491.139 103.824 602.247 105.492C709.879 107.107 817.385 110.896 925.152 111.359C1030.1 111.81 1137.71 109.433 1238 100.695C1250.78 99.582 1263.42 98.3547 1275.91 97.0128C1277.19 96.8772 1276.63 96.2948 1275.34 96.4323C1175.09 107.15 1065.65 110.524 958.519 110.791C851.393 111.059 744.568 107.353 637.719 105.47C527.329 103.527 415.987 102.528 305.901 105.439C254.823 106.791 203.833 109.037 154.597 113.057C103.295 117.25 54.7422 123.624 3.37655 127.757C-47.6161 131.851 -100.711 133.559 -153.361 135.251C-205.294 136.92 -257.327 138.536 -308.55 141.435C-321.773 142.188 -334.921 143.029 -347.992 143.956C-348.254 143.979 -348.473 144.03 -348.604 144.097C-348.735 144.164 -348.767 144.244 -348.695 144.318C-348.623 144.392 -348.451 144.457 -348.215 144.497C-347.98 144.538 -347.698 144.552 -347.429 144.537L-347.451 144.537Z" fill="#092728"/>
<path d="M-350.969 151.039C-245.614 144.148 -135.631 143.08 -31.5938 134.66C18.0866 130.633 64.0023 124.128 111.233 118.41C159.891 112.518 210.525 108.385 262.829 105.777C372.542 100.305 485.687 100.649 596.696 103.483C705.218 106.253 812.568 112.256 921.207 114.558C1026.83 116.787 1136.35 115.653 1237.48 106.612C1250.3 105.466 1262.94 104.186 1275.39 102.771C1276.65 102.63 1276.11 102.048 1274.82 102.191C1174.32 113.548 1062.96 115.97 955.073 114.542C846.831 113.107 739.932 107.133 632.251 103.876C522.707 100.563 411.646 99.4753 302.442 103.466C250.816 105.356 199.636 108.431 150.718 113.334C100.508 118.374 53.664 125.598 3.66203 130.776C-96.758 141.175 -206.448 142.368 -310.972 148.031C-324.549 148.766 -338.069 149.573 -351.532 150.451C-352.873 150.538 -352.31 151.118 -350.962 151.031L-350.969 151.039Z" fill="#082021"/>
<path d="M-354.51 157.54C-247.847 151.229 -136.71 148.928 -33.7947 138.52C15.9412 133.493 61.3318 125.975 108.338 119.341C156.032 112.605 206.587 107.547 258.857 104.281C368.578 97.4121 482.763 97.4977 594.275 101.585C704.03 105.609 811.362 113.786 921.089 117.799C1027.05 121.676 1138.45 121.788 1240.26 112.227C1252.07 111.118 1263.68 109.866 1275.14 108.5C1276.4 108.35 1275.31 107.828 1274.05 107.978C1173.29 119.998 1060 121.307 951.719 118.2C840.826 115.018 732.628 106.718 622.46 102.095C513.776 97.5359 403.066 96.4419 294.795 101.679C243.961 104.136 193.909 107.993 146.535 113.655C97.4115 119.527 52.04 127.491 3.40201 133.649C-96.2126 146.252 -207.389 149.131 -314.02 154.682C-327.73 155.395 -341.408 156.155 -355.052 156.96C-356.4 157.039 -355.837 157.62 -354.482 157.54L-354.51 157.54Z" fill="#07191A"/>
<path d="M-357.997 164.042C-251.035 158.378 -140.65 154.658 -39.8494 142.721C9.73331 136.851 54.4401 128.506 100.777 120.977C147.602 113.372 196.913 107.321 249.211 103.23C359.191 94.6306 475.078 94.25 587.752 99.5639C700.425 104.878 809.106 115.335 921.426 121.1C1026.45 126.477 1138.44 127.954 1240.18 118.106C1251.88 116.973 1263.35 115.685 1274.61 114.266C1275.86 114.108 1274.78 113.588 1273.52 113.744C1171.3 126.59 1054.8 126.548 945.317 121.644C833.474 116.643 725.616 106.268 614.43 100.313C505.043 94.4525 393.142 93.4384 284.405 100.159C233.984 103.274 184.766 107.987 138.75 114.488C91.1265 121.215 47.2788 129.774 0.12759 136.745C-97.7692 151.198 -209.012 155.91 -317.041 161.33C-330.904 162.024 -344.746 162.734 -358.567 163.46C-359.922 163.533 -359.352 164.114 -357.997 164.042Z" fill="#061313"/>
<path d="M-361.513 170.543C-252.562 165.456 -141.287 160.228 -41.7449 146.392C9.45035 139.272 54.9886 129.627 102.873 121.005C149.924 112.541 200.15 105.726 253.763 101.067C362.859 91.586 477.598 91.2933 589.44 98.0053C703.453 104.845 812.059 117.362 925.639 124.672C1028.12 131.265 1138.92 133.98 1239.22 124.058C1251.09 122.877 1262.74 121.527 1274.11 120.015C1275.36 119.851 1274.27 119.329 1273.03 119.492C1172.59 132.793 1057.11 131.672 949.865 125.535C836.632 119.054 728.921 106.721 616.697 99.1329C561.897 95.4297 506.065 92.9016 449.733 92.6473C395.909 92.4065 342.27 94.0802 290.113 97.6279C238.005 101.158 187.893 106.617 141.1 113.86C91.134 121.624 46.0389 131.515 -2.8898 139.739C-99.4124 155.956 -210.387 162.69 -320.465 167.997C-334.328 168.664 -348.191 169.319 -362.055 169.961C-363.41 170.024 -362.84 170.606 -361.484 170.543L-361.513 170.543Z" fill="#050C0C"/>
</g>
<g filter="url(#filter0_f_596_10092)">
<path d="M-276.833 13.4632C-220.622 2.85195 -146.61 2.71602 -83.7881 9.21016C-19.1252 15.8991 33.4137 29.4707 76.0821 44.1573C123.409 60.4445 160.273 78.7528 203.609 95.821C242.911 111.297 288.635 125.661 344.263 136.793C400.291 148.008 465.86 155.578 534.961 156.894C601.976 158.167 667.197 153.109 720.672 142.014C827.113 119.946 871.191 83.5736 929.695 52.0242C961.114 35.0844 998.552 18.7468 1051.51 6.34567C1103.9 -5.865 1167.1 -14.0316 1234.8 -17.3415C1251.7 -18.1574 1268.79 -18.6602 1285.96 -18.8466C1287.33 -18.8635 1287.34 -19.4583 1285.96 -19.4414C1219.78 -18.6672 1155.56 -13.3081 1099.17 -3.85556C1041.46 5.8166 996.326 19.5478 960.984 35.3298C890.401 66.8446 854.79 104.405 759.964 131.571C712.001 145.314 650.664 154.615 580.838 156.223C508.094 157.89 435.24 151.979 373.143 141.415C312.958 131.191 262.695 116.967 220.727 101.367C175.053 84.3879 138.076 65.7858 92.036 48.8726C51.9699 34.1674 4.24944 20.4324 -55.6654 11.9996C-110.953 4.22938 -178.132 1.51459 -237.033 7.21933C-251.526 8.62634 -265.272 10.5514 -277.927 12.9458C-279.061 13.158 -277.988 13.6772 -276.847 13.4631L-276.833 13.4632Z" fill="#69F8FF"/>
<path d="M-276.765 14.4634C-277.455 14.574 -278.189 14.4998 -278.676 14.2654C-278.803 14.2041 -279.02 14.0823 -279.187 13.857C-279.279 13.7341 -279.374 13.5547 -279.402 13.3241C-279.431 13.0829 -279.377 12.8557 -279.274 12.6681C-279.094 12.3379 -278.799 12.1866 -278.656 12.1235C-278.483 12.0466 -278.293 11.9974 -278.11 11.9631C-265.423 9.56245 -251.646 7.63353 -237.128 6.22402L-237.128 6.224C-178.137 0.510587 -110.878 3.22982 -55.5243 11.0093L-55.5241 11.0093C4.47035 19.4534 52.2597 33.2078 92.3821 47.9338L92.3824 47.9339C115.431 56.4008 136.208 65.2896 156.915 74.176L158.176 74.7172C178.465 83.4251 198.73 92.1222 221.077 100.43C262.986 116.008 313.188 130.215 373.312 140.429L373.198 141.096L373.312 140.429C435.348 150.983 508.138 156.889 580.817 155.223C650.573 153.617 711.823 144.326 759.69 130.61C807.006 117.055 839.541 100.91 869.074 84.2108C876.71 79.893 884.153 75.5332 891.604 71.1689C912.956 58.6618 934.372 46.1172 960.577 34.4168C996.011 18.594 1041.23 4.8416 1099 -4.84178C1155.45 -14.304 1219.73 -19.6666 1285.95 -20.4413M-276.765 14.4634L1285.95 -20.4413M-276.765 14.4634L-276.743 14.4635L-276.649 14.4458C-220.564 3.85831 -146.655 3.71683 -83.8928 10.2049C-19.3152 16.885 33.149 30.4378 75.7551 45.1029L76.045 44.2648L75.7551 45.103C104.999 55.1672 130.193 65.9818 155.429 76.8149C171.027 83.511 186.643 90.2142 203.241 96.7515L203.595 95.8571L203.241 96.7515C242.595 112.248 288.376 126.629 344.065 137.774C400.153 149 465.78 156.577 534.94 157.894C602.01 159.168 667.308 154.107 720.873 142.993C805.45 125.458 850.791 98.8749 895.073 72.9126C906.617 66.1438 918.09 59.4172 930.168 52.9041C961.521 36.0004 998.876 19.6975 1051.74 7.3193M-276.765 14.4634L1051.74 7.3193M1285.95 -20.4413C1286.35 -20.4462 1286.73 -20.4091 1287.03 -20.3127C1287.18 -20.2659 1287.38 -20.1872 1287.56 -20.0454C1287.73 -19.9057 1288 -19.607 1287.99 -19.1471C1287.99 -18.6955 1287.72 -18.4053 1287.56 -18.2714C1287.38 -18.1319 1287.2 -18.0508 1287.05 -18.0008C1286.74 -17.8982 1286.37 -17.8516 1285.97 -17.8467L1285.96 -17.8466C1268.81 -17.6604 1251.74 -17.1579 1234.85 -16.3427C1167.19 -13.0351 1104.06 -4.87459 1051.74 7.3193M1285.95 -20.4413L1051.74 7.3193" stroke="#2152FE" stroke-width="2"/>
</g>
<g filter="url(#filter1_d_596_10092)">
<path d="M-276.833 13.4632C-220.622 2.85195 -146.61 2.71602 -83.7881 9.21016C-19.1252 15.8991 33.4137 29.4707 76.0821 44.1573C123.409 60.4445 160.273 78.7528 203.609 95.821C242.911 111.297 288.635 125.661 344.263 136.793C400.291 148.008 465.86 155.578 534.961 156.894C601.976 158.167 667.197 153.109 720.672 142.014C827.113 119.946 871.191 83.5736 929.695 52.0242C961.114 35.0844 998.552 18.7468 1051.51 6.34567C1103.9 -5.865 1167.1 -14.0316 1234.8 -17.3415C1251.7 -18.1574 1268.79 -18.6602 1285.96 -18.8466C1287.33 -18.8635 1287.34 -19.4583 1285.96 -19.4414C1219.78 -18.6672 1155.56 -13.3081 1099.17 -3.85556C1041.46 5.8166 996.326 19.5478 960.984 35.3298C890.401 66.8446 854.79 104.405 759.964 131.571C712.001 145.314 650.664 154.615 580.838 156.223C508.094 157.89 435.24 151.979 373.143 141.415C312.958 131.191 262.695 116.967 220.727 101.367C175.053 84.3879 138.076 65.7858 92.036 48.8726C51.9699 34.1674 4.24944 20.4324 -55.6654 11.9996C-110.953 4.22938 -178.132 1.51459 -237.033 7.21933C-251.526 8.62634 -265.272 10.5514 -277.927 12.9458C-279.061 13.158 -277.988 13.6772 -276.847 13.4631L-276.833 13.4632Z" fill="#69B7FF"/>
</g>
</g>
</g>
<defs>
<filter id="filter0_f_596_10092" x="-288.51" y="-29.5417" width="1585.6" height="196.728" filterUnits="userSpaceOnUse" color-interpolation-filters="sRGB">
<feFlood flood-opacity="0" result="BackgroundImageFix"/>
<feBlend mode="normal" in="SourceGraphic" in2="BackgroundImageFix" result="shape"/>
<feGaussianBlur stdDeviation="4.05" result="effect1_foregroundBlur_596_10092"/>
</filter>
<filter id="filter1_d_596_10092" x="-282.409" y="-19.4417" width="1573.4" height="184.528" filterUnits="userSpaceOnUse" color-interpolation-filters="sRGB">
<feFlood flood-opacity="0" result="BackgroundImageFix"/>
<feColorMatrix in="SourceAlpha" type="matrix" values="0 0 0 0 0 0 0 0 0 0 0 0 0 0 0 0 0 0 127 0" result="hardAlpha"/>
<feOffset dy="4"/>
<feGaussianBlur stdDeviation="2"/>
<feComposite in2="hardAlpha" operator="out"/>
<feColorMatrix type="matrix" values="0 0 0 0 0 0 0 0 0 0 0 0 0 0 0 0 0 0 0.25 0"/>
<feBlend mode="normal" in2="BackgroundImageFix" result="effect1_dropShadow_596_10092"/>
<feBlend mode="normal" in="SourceGraphic" in2="effect1_dropShadow_596_10092" result="shape"/>
</filter>
<linearGradient id="paint0_linear_596_10092" x1="19.8832" y1="110.626" x2="889.053" y2="63.4799" gradientUnits="userSpaceOnUse">
<stop stop-color="#D9D9D9" stop-opacity="0"/>
<stop offset="0.463511" stop-color="#737373"/>
<stop offset="0.955" stop-color="#737373" stop-opacity="0"/>
</linearGradient>
<clipPath id="clip0_596_10092">
<rect width="1648.83" height="193.315" fill="white" transform="matrix(0.999994 0.00352089 -0.0054132 0.999985 -361.82 -25.248)"/>
</clipPath>
</defs>
</svg>
