<svg width="24" height="27" viewBox="0 0 24 27" fill="none" xmlns="http://www.w3.org/2000/svg">
<g id="Group">
<path id="Vector" d="M6.95872 13.3288C7.15585 13.0499 7.25681 12.7422 7.28086 12.4249C8.04052 12.3191 8.77132 11.9777 9.34827 11.4152C9.54059 11.2325 9.54539 10.9248 9.35789 10.7373C9.17038 10.545 8.86747 10.5402 8.67998 10.7277C7.88669 11.497 6.72316 11.7133 5.71352 11.2806C4.73751 10.8623 4.09806 9.89595 4.07883 8.82858C4.07883 8.56414 3.85767 8.35742 3.59804 8.35742H3.58843C3.32399 8.35742 3.11244 8.57858 3.11727 8.84784C3.14131 10.295 4.01152 11.598 5.3289 12.1652C5.65104 12.3046 5.98277 12.3912 6.31451 12.4345C6.29528 12.5498 6.2472 12.6652 6.16547 12.7758C5.79527 13.2999 4.88175 13.6412 4.20864 13.7037C3.94421 13.7278 3.74709 13.9586 3.77112 14.223C3.79516 14.473 4.0019 14.6605 4.25191 14.6605H4.29518C5.20869 14.5788 6.38179 14.1365 6.95394 13.3287L6.95872 13.3288Z" fill="url(#paint0_linear_876_11607)"/>
<path id="Vector_2" d="M9.80507 15.0947C8.19442 15.263 7.39149 16.0274 7.00686 16.638C6.62703 17.2342 6.47798 17.9554 6.56453 18.691C6.32414 18.6814 6.07894 18.691 5.83853 18.7535C5.57891 18.8208 5.42504 19.0804 5.49237 19.3352C5.55968 19.5949 5.8193 19.7487 6.07411 19.6814C6.50681 19.5708 6.93953 19.6478 7.353 19.9026C8.0742 20.3497 8.67035 21.3065 8.90596 22.4027C8.95404 22.6286 9.15597 22.7825 9.37711 22.7825C9.41077 22.7825 9.44442 22.7825 9.47808 22.7729C9.7377 22.7152 9.90117 22.4604 9.84828 22.2007C9.555 20.8401 8.80977 19.6766 7.86262 19.0852C7.77608 19.0323 7.68954 18.9987 7.603 18.9554C7.4203 18.3111 7.49723 17.6621 7.81935 17.1524C8.21358 16.5322 8.93478 16.1524 9.90596 16.0514C10.1704 16.0226 10.3627 15.787 10.3339 15.5226C10.305 15.2581 10.0695 15.0658 9.80507 15.0947Z" fill="url(#paint1_linear_876_11607)"/>
<path id="Vector_3" d="M23.2937 13.776C23.6591 12.4826 23.3177 11.1076 22.3898 10.122C22.6206 8.77095 22.1878 7.42954 21.2263 6.55935C21.0244 6.37665 20.4282 5.89587 19.5916 5.70356C20.1445 4.00638 19.3752 2.73709 18.3415 2.24679C18.1012 2.1314 17.8367 2.05928 17.5627 2.03044C17.5435 1.99678 17.5242 1.96313 17.4954 1.93428C16.0818 0.602502 14.5048 -0.0273396 13.2644 0.256334C12.8125 0.357298 12.2404 0.626535 11.7692 1.27081C11.3028 0.626535 10.7307 0.357292 10.2739 0.256334C9.03348 -0.022524 7.45165 0.602502 6.04295 1.93428C6.0141 1.96313 5.99487 1.99678 5.97564 2.03044C5.70159 2.05929 5.43715 2.1314 5.19677 2.24679C4.16307 2.73721 3.39381 4.0065 3.94672 5.69894C3.10533 5.89126 2.51398 6.37685 2.31204 6.55956C1.35046 7.42978 0.917762 8.77599 1.14854 10.1222C0.225425 11.1078 -0.120743 12.4829 0.244657 13.7762C0.345621 14.1271 0.494667 14.4541 0.682183 14.7522C0.427366 15.2859 -0.0341857 16.4926 0.302352 17.7908C0.542746 18.7235 1.13894 19.5024 2.07166 20.1178C1.97069 20.589 1.9178 21.2621 2.17743 21.9833C2.71592 23.4785 4.16308 24.0074 4.7256 24.1612C5.49486 25.3873 6.83148 26.1517 8.23067 26.1517C8.29798 26.1517 8.36049 26.1517 8.42779 26.1469C9.8317 26.0748 11.077 25.2575 11.7692 24.041C12.4615 25.2526 13.7068 26.0748 15.1105 26.1469C15.1779 26.1469 15.2404 26.1517 15.3077 26.1517C16.7068 26.1517 18.0433 25.3921 18.8127 24.1612C19.3752 24.0074 20.8176 23.4785 21.3609 21.9833C21.6205 21.2621 21.5725 20.589 21.4667 20.1178C22.3994 19.5024 22.9956 18.7235 23.236 17.7908C23.5677 16.4926 23.111 15.2859 22.8562 14.7522C23.0437 14.4541 23.1975 14.127 23.2937 13.776ZM8.38442 25.1851C7.20166 25.2428 6.0622 24.5889 5.46122 23.5071C5.3891 23.3821 5.2689 23.2956 5.12465 23.2667C5.11022 23.2667 3.56209 22.9686 3.0861 21.6513C2.84571 20.983 2.98514 20.3579 3.0861 20.0454C3.15822 19.8291 3.06687 19.5887 2.86975 19.4733C1.98509 18.9684 1.43701 18.3242 1.23506 17.5549C1.03794 16.8049 1.20621 16.0693 1.38411 15.5741C1.97066 16.0933 2.71589 16.4347 3.54285 16.526H3.59573C3.83613 16.526 4.04769 16.3433 4.07172 16.0981C4.10057 15.8337 3.90826 15.5981 3.64383 15.5693C2.4755 15.4442 1.48509 14.6173 1.16775 13.5115C0.874474 12.4778 1.19179 11.3768 1.99471 10.6315C2.11972 10.5113 2.17741 10.3383 2.13414 10.17C1.87451 9.07378 2.18703 7.96314 2.95147 7.27081C3.0957 7.14099 3.85055 6.50634 4.83616 6.58327C6.08142 6.68423 7.17762 7.86699 7.44206 9.40068C7.48533 9.66031 7.73053 9.83338 7.99977 9.79011C8.2594 9.74203 8.4373 9.49683 8.38921 9.2324C8.04304 7.25634 6.6295 5.78025 4.94198 5.6264C4.42753 4.35711 4.88909 3.44843 5.60066 3.11186C6.32186 2.77049 7.3363 2.98686 7.96614 4.24172C8.08634 4.47731 8.3748 4.57346 8.61041 4.45808C8.846 4.33788 8.94215 4.04942 8.82677 3.81381C8.40847 2.97722 7.81713 2.46279 7.19208 2.20795C8.21136 1.40023 9.26909 1.01559 10.0528 1.19348C10.5913 1.31848 11.0048 1.71273 11.2788 2.37624V6.0927C10.7596 5.69847 10.173 5.59268 9.80761 5.61671C9.54317 5.63114 9.34605 5.85711 9.36048 6.12153C9.37492 6.38596 9.60569 6.58309 9.8653 6.57829C9.97108 6.57348 10.9134 6.57348 11.2836 7.74179V22.675C10.9471 24.0837 9.75955 25.1174 8.37487 25.1896L8.38442 25.1851ZM22.3032 17.5598C22.1012 18.3291 21.5531 18.9733 20.6685 19.4782C20.4714 19.5936 20.38 19.8291 20.4521 20.0503C20.5579 20.3628 20.6973 20.9879 20.4521 21.6562C19.9761 22.9735 18.4328 23.2668 18.4136 23.2716C18.2741 23.2957 18.1491 23.387 18.077 23.512C17.476 24.589 16.3366 25.2477 15.1538 25.19C13.7691 25.1178 12.5816 24.089 12.245 22.6754V7.74218C12.6152 6.57869 13.5528 6.57385 13.6634 6.57869C13.923 6.5883 14.1538 6.39118 14.1682 6.12673C14.1874 5.86229 13.9855 5.63151 13.7211 5.61711C13.3557 5.59787 12.7691 5.70365 12.2499 6.0979V2.37651C12.5239 1.71303 12.9374 1.31397 13.4759 1.19375C14.2596 1.01586 15.3173 1.40049 16.3366 2.20822C15.7116 2.46304 15.1202 2.97749 14.7019 3.81408C14.5817 4.04966 14.6779 4.33813 14.9183 4.45835C15.1538 4.57855 15.4471 4.48239 15.5625 4.242C16.1924 2.98714 17.2069 2.77079 17.928 3.11213C18.6396 3.4487 19.1011 4.35739 18.5867 5.62667C16.8991 5.78052 15.4856 7.25655 15.1395 9.23267C15.0962 9.4923 15.2693 9.74229 15.5289 9.79039C15.7933 9.83365 16.0385 9.66057 16.0866 9.40095C16.3511 7.87203 17.4473 6.6845 18.6925 6.58354C19.6733 6.50181 20.4378 7.14126 20.5772 7.27108C21.3417 7.96342 21.6542 9.07405 21.3945 10.1702C21.3561 10.3385 21.409 10.5164 21.534 10.6318C22.3369 11.377 22.6542 12.4828 22.3609 13.5117C22.0484 14.6176 21.0532 15.4445 19.8848 15.5695C19.6204 15.5984 19.4281 15.834 19.457 16.0984C19.4858 16.3436 19.6925 16.5263 19.9329 16.5263H19.9858C20.8128 16.4349 21.558 16.0936 22.1446 15.5743C22.3225 16.0695 22.4907 16.8099 22.2936 17.5552L22.3032 17.5598Z" fill="url(#paint2_linear_876_11607)"/>
<path id="Vector_4" d="M19.7725 14.223C19.7965 13.9586 19.5994 13.723 19.3349 13.7037C18.6618 13.646 17.7483 13.2999 17.3781 12.7758C17.2964 12.6652 17.2531 12.5499 17.2291 12.4345C17.5656 12.3912 17.8974 12.3046 18.2195 12.1652C19.5417 11.5931 20.4071 10.295 20.4311 8.84784C20.4311 8.58341 20.2244 8.36225 19.96 8.35742H19.9504C19.6907 8.35742 19.4744 8.56897 19.4696 8.82858C19.4504 9.89595 18.8109 10.8575 17.8349 11.2806C16.8253 11.7133 15.6617 11.497 14.8684 10.7277C14.6761 10.5402 14.3732 10.545 14.1905 10.7373C14.0078 10.9296 14.0078 11.2325 14.2001 11.4152C14.7819 11.9777 15.5079 12.3191 16.2676 12.4249C16.2916 12.7422 16.3926 13.0499 16.5897 13.3288C17.1618 14.1365 18.335 14.5788 19.2484 14.6605H19.2917C19.5369 14.6605 19.7484 14.473 19.7725 14.223Z" fill="url(#paint3_linear_876_11607)"/>
<path id="Vector_5" d="M17.717 18.7457C17.4766 18.6832 17.2314 18.6735 16.991 18.6832C17.0824 17.9524 16.9285 17.2312 16.5487 16.6302C16.1593 16.0196 15.3612 15.2551 13.7505 15.0868C13.4813 15.058 13.2505 15.2503 13.2216 15.5147C13.1928 15.7792 13.3851 16.0148 13.6495 16.0436C14.6207 16.1446 15.3419 16.5244 15.7361 17.1446C16.0583 17.6543 16.1352 18.3033 15.9525 18.9476C15.8659 18.9909 15.7794 19.0245 15.6929 19.0774C14.7409 19.6688 14.0005 20.8323 13.7072 22.1929C13.6495 22.4526 13.8178 22.7074 14.0774 22.7651C14.1111 22.7747 14.1447 22.7747 14.1784 22.7747C14.3995 22.7747 14.6015 22.6208 14.6495 22.3949C14.8851 21.2987 15.4813 20.3419 16.2025 19.8948C16.616 19.6399 17.0439 19.563 17.4814 19.6736C17.7362 19.7361 18.0006 19.5822 18.0631 19.3274C18.1256 19.0678 17.9719 18.8082 17.717 18.7457Z" fill="url(#paint4_linear_876_11607)"/>
</g>
<defs>
<linearGradient id="paint0_linear_876_11607" x1="4.31544" y1="8.35742" x2="8.0469" y2="15.6598" gradientUnits="userSpaceOnUse">
<stop stop-color="white"/>
<stop offset="1" stop-color="#2F70A5"/>
</linearGradient>
<linearGradient id="paint1_linear_876_11607" x1="6.3896" y1="15.0918" x2="11.8967" y2="21.8221" gradientUnits="userSpaceOnUse">
<stop stop-color="white"/>
<stop offset="1" stop-color="#2F70A5"/>
</linearGradient>
<linearGradient id="paint2_linear_876_11607" x1="4.4855" y1="0.189453" x2="20.8812" y2="28.6891" gradientUnits="userSpaceOnUse">
<stop stop-color="white"/>
<stop offset="1" stop-color="#2F70A5"/>
</linearGradient>
<linearGradient id="paint3_linear_876_11607" x1="15.2526" y1="8.35742" x2="18.9847" y2="15.6589" gradientUnits="userSpaceOnUse">
<stop stop-color="white"/>
<stop offset="1" stop-color="#2F70A5"/>
</linearGradient>
<linearGradient id="paint4_linear_876_11607" x1="14.1314" y1="15.084" x2="19.6389" y2="21.8122" gradientUnits="userSpaceOnUse">
<stop stop-color="white"/>
<stop offset="1" stop-color="#2F70A5"/>
</linearGradient>
</defs>
</svg>
