<svg width="35" height="34" viewBox="0 0 35 34" fill="none" xmlns="http://www.w3.org/2000/svg">
<g id="Frame 30565">
<g id="Group 39">
<path id="Rectangle 96" d="M4.97137 11.3859C4.97137 6.94659 8.57018 3.34778 13.0095 3.34778H26.5739C28.7936 3.34778 30.593 5.14718 30.593 7.36686C30.593 9.58654 28.7936 11.3859 26.5739 11.3859H4.97137Z" fill="#98B7C8"/>
<path id="Rectangle 97" d="M4.97137 12.6418H15.5215C17.7411 12.6418 19.5405 14.4412 19.5405 16.6609C19.5405 18.8806 17.7411 20.68 15.5215 20.68H4.97137V12.6418Z" fill="#98B7C8"/>
<path id="Rectangle 98" d="M4.97137 21.9366H8.99046C11.2101 21.9366 13.0095 23.736 13.0095 25.9557C13.0095 28.1754 11.2101 29.9748 8.99046 29.9748C6.77078 29.9748 4.97137 28.1754 4.97137 25.9557V21.9366Z" fill="#98B7C8"/>
</g>
</g>
</svg>
