<svg width="18" height="38" viewBox="0 0 18 38" fill="none" xmlns="http://www.w3.org/2000/svg">
<path id="Union" fill-rule="evenodd" clip-rule="evenodd" d="M8.11601 32.1626V37.4377H9.06529V32.1626H13.5101C15.6849 32.1626 17.4479 30.3995 17.4479 28.2247L17.4479 8.91443C17.4479 6.73961 15.6849 4.97657 13.5101 4.97657H9.06529V0.107666L8.11601 0.107666V4.97657H3.93805C1.76322 4.97657 0.000182056 6.73961 0.000183105 8.91443L0.000192426 28.2247C0.000193476 30.3995 1.76324 32.1626 3.93806 32.1626H8.11601ZM9.06529 31.2133H13.5101C15.1606 31.2133 16.4987 29.8752 16.4987 28.2247L16.4986 8.91443C16.4986 7.26388 15.1606 5.92584 13.5101 5.92584H9.06529L9.06529 31.2133ZM8.11601 5.92584L8.11601 31.2133H3.93806C2.28751 31.2133 0.949466 29.8752 0.949466 28.2247L0.949456 8.91443C0.949455 7.26388 2.28749 5.92584 3.93805 5.92584H8.11601Z" fill="white"/>
</svg>
