<svg width="83" height="25" viewBox="0 0 83 25" fill="none" xmlns="http://www.w3.org/2000/svg">
<g id="Group 571">
<path id="Vector" d="M13.5399 0C10.5472 0 7.67701 1.18885 5.56084 3.30503C3.44466 5.4212 2.25581 8.29134 2.25581 11.2841C2.25306 12.9544 2.61621 14.6051 3.31974 16.1201L0.692163 23.1323C0.637603 23.2775 0.626073 23.4353 0.658954 23.5868C0.691836 23.7384 0.767733 23.8772 0.877544 23.9867C1.03601 24.1229 1.24119 24.1923 1.44981 24.1801C1.54597 24.181 1.64151 24.1646 1.73191 24.1318L8.74415 21.5042C10.2468 22.202 11.8831 22.565 13.5399 22.5681C16.5326 22.5681 19.4027 21.3793 21.5189 19.2631C23.6351 17.1469 24.8239 14.2768 24.8239 11.2841C24.8239 8.29134 23.6351 5.4212 21.5189 3.30503C19.4027 1.18885 16.5326 4.4595e-08 13.5399 0ZM13.5399 20.9561C12.0139 20.9547 10.5095 20.5959 9.14715 19.9083C9.04826 19.8575 8.93993 19.8277 8.82896 19.8207C8.71799 19.8138 8.60679 19.8299 8.50235 19.868L2.86031 21.9959L4.98817 16.3538C5.03255 16.2521 5.05546 16.1424 5.05546 16.0314C5.05546 15.9205 5.03255 15.8107 4.98817 15.709C4.02232 13.8317 3.69725 11.6899 4.06255 9.6106C4.42786 7.53125 5.46348 5.62853 7.01137 4.19285C8.55925 2.75716 10.5344 1.86735 12.6353 1.65924C14.7362 1.45113 16.8475 1.93613 18.647 3.04024C20.4464 4.14434 21.8352 5.8069 22.6014 7.77417C23.3676 9.74144 23.469 11.9054 22.8902 13.9357C22.3115 15.966 21.0843 17.7512 19.396 19.0188C17.7077 20.2864 15.651 20.9668 13.5399 20.9561Z" fill="#AED3DE"/>
<path id="Vector_2" d="M71.6805 0C68.6878 0 65.8176 1.18885 63.7015 3.30503C61.5853 5.4212 60.3964 8.29134 60.3964 11.2841C60.3937 12.9544 60.7568 14.6051 61.4604 16.1201L58.8328 23.1323C58.7782 23.2775 58.7667 23.4353 58.7996 23.5868C58.8325 23.7384 58.9084 23.8772 59.0182 23.9867C59.1766 24.1229 59.3818 24.1923 59.5904 24.1801C59.6866 24.181 59.7821 24.1646 59.8725 24.1318L66.8848 21.5042C68.3874 22.202 70.0237 22.565 71.6805 22.5681C74.6732 22.5681 77.5434 21.3793 79.6595 19.2631C81.7757 17.1469 82.9646 14.2768 82.9646 11.2841C82.9646 8.29134 81.7757 5.4212 79.6595 3.30503C77.5434 1.18885 74.6732 4.4595e-08 71.6805 0ZM71.6805 20.9561C70.1545 20.9547 68.6501 20.5959 67.2878 19.9083C67.1889 19.8575 67.0806 19.8277 66.9696 19.8207C66.8586 19.8138 66.7474 19.8299 66.643 19.868L61.0009 21.9959L63.1288 16.3538C63.1732 16.2521 63.1961 16.1424 63.1961 16.0314C63.1961 15.9205 63.1732 15.8107 63.1288 15.709C62.1629 13.8317 61.8379 11.6899 62.2032 9.6106C62.5685 7.53125 63.6041 5.62853 65.152 4.19285C66.6999 2.75716 68.675 1.86735 70.7759 1.65924C72.8768 1.45113 74.9881 1.93613 76.7876 3.04024C78.5871 4.14434 79.9759 5.8069 80.742 7.77417C81.5082 9.74144 81.6096 11.9054 81.0309 13.9357C80.4521 15.966 79.2249 17.7512 77.5366 19.0188C75.8483 20.2864 73.7917 20.9668 71.6805 20.9561Z" fill="#AED3DE"/>
<circle id="Ellipse 40" cx="41.8008" cy="12.0898" r="3.89453" fill="#AED3DE"/>
</g>
</svg>
