<svg width="32" height="34" viewBox="0 0 32 34" fill="none" xmlns="http://www.w3.org/2000/svg">
<g id="Frame">
<path id="Vector" fill-rule="evenodd" clip-rule="evenodd" d="M5.56791 1.39435L14.2398 9.38418V9.38235V1.41278H15.9279V9.41994L24.6386 1.39435V10.5039H28.2149V23.6437H24.6496V31.7553L15.9279 24.0927V31.8433H14.2398V24.219L5.57774 31.8483V23.6437H2.00133V10.5039H5.56791V1.39435ZM12.9672 12.1714H3.68939V21.9762H5.57562V18.8834L12.9672 12.1714ZM7.26572 19.6233V28.1276L14.2398 21.985V13.2888L7.26572 19.6233ZM15.9764 21.9038V13.2807L22.9525 19.6155V23.6437H22.9615V28.0407L15.9764 21.9038ZM24.6496 21.9762H26.5268V12.1714H17.3181L24.6496 18.8139V21.9762ZM22.9505 10.5039V5.22984L17.2261 10.5039H22.9505ZM12.9803 10.5039H7.25599V5.22984L12.9803 10.5039Z" fill="#98B7C8"/>
</g>
</svg>
